<?xml version="1.0" standalone="no"?><!DOCTYPE svg PUBLIC "-//W3C//DTD SVG 1.1//EN" "http://www.w3.org/Graphics/SVG/1.1/DTD/svg11.dtd"><svg t="1598651227193" class="icon" viewBox="0 0 1024 1024" version="1.1" xmlns="http://www.w3.org/2000/svg" p-id="4795" xmlns:xlink="http://www.w3.org/1999/xlink" width="128" height="128"><defs><style type="text/css"></style></defs><path d="M292.125746 688.684723c-7.462076 0-13.530645-6.070616-13.530645-13.531668 0-7.461052 6.068568-13.531668 13.530645-13.531669s13.530645 6.07164 13.530644 13.531669c0 7.461052-6.068568 13.531668-13.530644 13.531668m0-40.592957c-14.94463 0-27.061289 12.116659-27.061289 27.061289s12.116659 27.061289 27.061289 27.061289 27.061289-12.116659 27.061289-27.061289-12.116659-27.061289-27.061289-27.061289M344.308061 309.095621l14.377398-14.37535c2.584287-2.578143 2.618075-6.900987-0.026621-9.539539a6.720783 6.720783 0 0 0-9.539539-0.027645l-14.377398 14.37535-14.377398-14.37535c-2.577119-2.583263-6.900987-2.619099-9.539539 0.027645a6.720783 6.720783 0 0 0-0.026621 9.539539l14.377397 14.37535-14.377397 14.37535c-2.584287 2.577119-2.618075 6.900987 0.026621 9.53954a6.716688 6.716688 0 0 0 9.539539 0.027645l14.377398-14.37535 14.377398 14.37535c2.577119 2.586334 6.89382 2.619099 9.539539-0.027645a6.720783 6.720783 0 0 0 0.026621-9.53954l-14.377398-14.37535zM158.641816 748.144816a6.752524 6.752524 0 0 0 6.76481-6.766858 6.747404 6.747404 0 0 0-6.76481-6.764811 6.748428 6.748428 0 0 0-6.76481 6.764811 6.745357 6.745357 0 0 0 6.76481 6.766858M115.78812 253.546771a6.752524 6.752524 0 0 0 6.76481-6.767882 6.747404 6.747404 0 0 0-6.76481-6.764811 6.748428 6.748428 0 0 0-6.764811 6.764811 6.745357 6.745357 0 0 0 6.764811 6.767882M87.766426 688.469707a6.750476 6.750476 0 0 0 6.764811-6.76481 6.747404 6.747404 0 0 0-6.764811-6.767882 6.7515 6.7515 0 0 0-6.76481 6.767882 6.745357 6.745357 0 0 0 6.76481 6.76481" fill="#404041" p-id="4796"></path><path d="M101.920617 523.510519a3.54981 3.54981 0 0 1-3.550834-3.550834v-14.779785a3.54981 3.54981 0 1 1 7.101668 0v14.779785a3.54981 3.54981 0 0 1-3.550834 3.550834z" fill="#404041" p-id="4797"></path><path d="M109.30795 516.120115h-14.777737a3.54981 3.54981 0 1 1 0-7.101669h14.777737a3.54981 3.54981 0 0 1 3.550834 3.550834 3.548787 3.548787 0 0 1-3.550834 3.550835z" fill="#404041" p-id="4798"></path><path d="M74.189707 392.57504a3.54981 3.54981 0 0 1-3.550835-3.550835v-14.779784a3.54981 3.54981 0 1 1 7.101669 0v14.779784a3.54981 3.54981 0 0 1-3.550834 3.550835z" fill="#404041" p-id="4799"></path><path d="M81.580111 385.184635H66.799302a3.54981 3.54981 0 1 1 0-7.101668h14.779785c1.961764 0 3.550834 1.58907 3.550834 3.550834s-1.588046 3.550834-3.54981 3.550834z" fill="#404041" p-id="4800"></path><path d="M195.241621 679.062249a3.550834 3.550834 0 0 1-3.550834-3.550834v-14.779785a3.550834 3.550834 0 0 1 7.101668 0v14.779785a3.550834 3.550834 0 0 1-3.550834 3.550834z" fill="#404041" p-id="4801"></path><path d="M202.629977 671.669797h-14.777736a3.550834 3.550834 0 0 1 0-7.101669h14.777736a3.550834 3.550834 0 0 1 0 7.101669z" fill="#404041" p-id="4802"></path><path d="M727.736733 688.684723c-7.462076 0-13.530645-6.070616-13.530644-13.531668 0-7.461052 6.068568-13.531668 13.530644-13.531669s13.530645 6.07164 13.530645 13.531669c0 7.461052-6.067544 13.531668-13.530645 13.531668m0-40.592957c-14.94463 0-27.061289 12.116659-27.061289 27.061289s12.116659 27.061289 27.061289 27.061289 27.061289-12.116659 27.06129-27.061289-12.116659-27.061289-27.06129-27.061289M675.554418 309.095621l-14.377398-14.37535c-2.584287-2.578143-2.618075-6.900987 0.026621-9.539539a6.720783 6.720783 0 0 1 9.53954-0.027645l14.377397 14.37535 14.377398-14.37535c2.577119-2.583263 6.900987-2.619099 9.53954 0.027645a6.720783 6.720783 0 0 1 0.026621 9.539539l-14.377398 14.37535 14.377398 14.37535c2.584287 2.577119 2.618075 6.900987-0.026621 9.53954a6.716688 6.716688 0 0 1-9.53954 0.027645l-14.377398-14.37535-14.377397 14.37535c-2.577119 2.586334-6.89382 2.619099-9.53954-0.027645a6.720783 6.720783 0 0 1-0.026621-9.53954l14.377398-14.37535zM861.220663 748.144816a6.752524 6.752524 0 0 1-6.76481-6.766858 6.747404 6.747404 0 0 1 6.76481-6.764811 6.748428 6.748428 0 0 1 6.764811 6.764811 6.745357 6.745357 0 0 1-6.764811 6.766858M450.047771 634.280577a6.752524 6.752524 0 0 1-6.764811-6.766859 6.747404 6.747404 0 0 1 6.764811-6.76481 6.748428 6.748428 0 0 1 6.76481 6.76481 6.745357 6.745357 0 0 1-6.76481 6.766859M708.941271 792.307038a6.752524 6.752524 0 0 1-6.764811-6.766859 6.747404 6.747404 0 0 1 6.764811-6.76481 6.748428 6.748428 0 0 1 6.76481 6.76481 6.745357 6.745357 0 0 1-6.76481 6.766859M384.69829 723.780441a6.752524 6.752524 0 0 1-6.764811-6.766859 6.747404 6.747404 0 0 1 6.764811-6.76481 6.748428 6.748428 0 0 1 6.76481 6.76481 6.745357 6.745357 0 0 1-6.76481 6.766859M251.497976 275.943238a6.752524 6.752524 0 0 1-6.76481-6.766858 6.747404 6.747404 0 0 1 6.76481-6.76481 6.748428 6.748428 0 0 1 6.764811 6.76481 6.745357 6.745357 0 0 1-6.764811 6.766858M904.075384 253.546771a6.752524 6.752524 0 0 1-6.764811-6.767882 6.747404 6.747404 0 0 1 6.764811-6.764811 6.748428 6.748428 0 0 1 6.76481 6.764811 6.745357 6.745357 0 0 1-6.76481 6.767882M932.096053 688.469707a6.750476 6.750476 0 0 1-6.76481-6.76481 6.747404 6.747404 0 0 1 6.76481-6.767882 6.7515 6.7515 0 0 1 6.764811 6.767882 6.745357 6.745357 0 0 1-6.764811 6.76481" fill="#404041" p-id="4803"></path><path d="M917.941863 523.510519a3.54981 3.54981 0 0 1-3.550835-3.550834v-14.779785a3.54981 3.54981 0 1 1 7.101669 0v14.779785a3.548787 3.548787 0 0 1-3.550834 3.550834z" fill="#404041" p-id="4804"></path><path d="M925.332267 516.120115H910.55453a3.54981 3.54981 0 1 1 0-7.101669h14.777737a3.54981 3.54981 0 1 1 0 7.101669z" fill="#404041" p-id="4805"></path><path d="M945.673797 392.57504a3.54981 3.54981 0 0 1-3.550835-3.550835v-14.779784a3.54981 3.54981 0 1 1 7.101669 0v14.779784a3.550834 3.550834 0 0 1-3.550834 3.550835z" fill="#404041" p-id="4806"></path><path d="M953.061129 385.184635h-14.777737a3.54981 3.54981 0 1 1 0-7.101668h14.777737a3.54981 3.54981 0 1 1 0 7.101668z" fill="#404041" p-id="4807"></path><path d="M543.861264 328.755243a3.54981 3.54981 0 0 1-3.550835-3.550834v-14.777737a3.54981 3.54981 0 1 1 7.101669 0v14.777737a3.548787 3.548787 0 0 1-3.550834 3.550834z" fill="#404041" p-id="4808"></path><path d="M551.251668 321.366887h-14.777737a3.54981 3.54981 0 1 1 0-7.101669h14.777737a3.54981 3.54981 0 1 1 0 7.101669z" fill="#404041" p-id="4809"></path><path d="M559.774489 654.368183a3.550834 3.550834 0 0 1-3.550834-3.550835v-14.779784a3.550834 3.550834 0 0 1 7.101669 0v14.779784a3.550834 3.550834 0 0 1-3.550835 3.550835z" fill="#404041" p-id="4810"></path><path d="M567.16387 646.975731h-14.777737a3.550834 3.550834 0 0 1 0-7.101669H567.16387a3.550834 3.550834 0 0 1 0 7.101669z" fill="#404041" p-id="4811"></path><path d="M824.620858 679.062249a3.550834 3.550834 0 0 1-3.550834-3.550834v-14.779785a3.550834 3.550834 0 0 1 7.101669 0v14.779785a3.550834 3.550834 0 0 1-3.550835 3.550834z" fill="#404041" p-id="4812"></path><path d="M832.011263 671.669797h-14.777737a3.550834 3.550834 0 0 1 0-7.101669h14.777737a3.550834 3.550834 0 0 1 0 7.101669z" fill="#404041" p-id="4813"></path><path d="M840.012927 394.787656v171.474171c0 22.126162-22.126162 22.126162-22.126162 22.126162H596.631289c-44.2513 0-44.2513-55.314381-44.2513-55.314381 0-33.188219-33.188219-33.188219-33.188218-33.188219s-33.188219 0-33.188219 33.188219c0 0 0 55.314381-44.2513 55.314381H220.494729s-22.126162 0-22.126162-22.126162V394.787656s0-5.531029 11.063081-5.531029H828.95087c11.062057 0 11.062057 5.531029 11.062057 5.531029z" fill="#F2C928" p-id="4814"></path><path d="M242.619867 488.822308s0-55.314381 55.31438-55.314381h88.5026s55.314381 0 55.314381 55.314381c0 0 0 55.314381-55.314381 55.314381h-88.5026s-55.314381-0.001024-55.31438-55.314381z" fill="#33B88C" p-id="4815"></path><path d="M386.436847 551.948934h-88.5026c-21.835378 0-63.128674-13.193786-63.128673-63.128674 0-21.835378 13.193786-63.128674 63.128673-63.128673h88.5026c21.835378 0 63.128674 13.193786 63.128674 63.128673 0 21.835378-13.193786 63.128674-63.128674 63.128674z m-88.501576-110.627738c-46.961524 0-47.500088 45.559825-47.500088 47.500088 0 46.961524 45.559825 47.500088 47.500088 47.500088h88.5026c46.961524 0 47.500088-45.559825 47.500088-47.500088 0-46.961524-45.559825-47.500088-47.500088-47.500088h-88.5026zM740.44827 551.948934h-88.5026c-21.835378 0-63.128674-13.193786-63.128674-63.128674 0-21.835378 13.193786-63.128674 63.128674-63.128673h88.5026c21.835378 0 63.128674 13.193786 63.128673 63.128673 0 21.835378-13.193786 63.128674-63.128673 63.128674z m-88.5026-110.627738c-46.961524 0-47.500088 45.559825-47.500088 47.500088 0 46.961524 45.559825 47.500088 47.500088 47.500088h88.5026c46.961524 0 47.500088-45.559825 47.500088-47.500088 0-46.961524-45.559825-47.500088-47.500088-47.500088h-88.5026z" fill="#404041" p-id="4816"></path><path d="M596.631289 488.822308s0-55.314381 55.314381-55.314381h88.5026s55.314381 0 55.314381 55.314381c0 0 0 55.314381-55.314381 55.314381h-88.5026s-55.314381-0.001024-55.314381-55.314381z" fill="#F26E3F" p-id="4817"></path><path d="M740.44827 550.527781h-88.5026c-21.34289 0-61.707521-12.897883-61.707521-61.707521 0-21.34289 12.897883-61.707521 61.707521-61.707521h88.5026c21.34289 0 61.707521 12.897883 61.707521 61.707521 0 21.34289-12.897883 61.707521-61.707521 61.707521z m-88.5026-110.627738c-48.365271 0-48.921241 46.922617-48.921241 48.921241 0 48.365271 46.922617 48.921241 48.921241 48.921241h88.5026c48.365271 0 48.921241-46.922617 48.921241-48.921241 0-48.365271-46.922617-48.921241-48.921241-48.921241h-88.5026zM264.697906 397.076039h-7.103717c-4.314653 0-7.814293-3.49964-7.814292-7.814292s3.49964-7.814293 7.814292-7.814293h7.103717c4.314653 0 7.814293 3.49964 7.814293 7.814293s-3.49964 7.814293-7.814293 7.814292zM246.229062 596.259619h-7.103716c-4.314653 0-7.814293-3.49964-7.814293-7.814293s3.49964-7.814293 7.814293-7.814293h7.103716c4.314653 0 7.814293 3.49964 7.814293 7.814293s-3.49964 7.814293-7.814293 7.814293zM312.763179 596.259619h-7.103717c-4.314653 0-7.814293-3.49964-7.814293-7.814293s3.49964-7.814293 7.814293-7.814293h7.103717c4.314653 0 7.814293 3.49964 7.814292 7.814293s-3.49964 7.814293-7.814292 7.814293zM663.422401 596.259619h-7.103717c-4.314653 0-7.814293-3.49964-7.814292-7.814293s3.49964-7.814293 7.814292-7.814293h7.103717c4.314653 0 7.814293 3.49964 7.814292 7.814293s-3.49964 7.814293-7.814292 7.814293zM729.24594 596.259619h-7.103716c-4.314653 0-7.814293-3.49964-7.814293-7.814293s3.49964-7.814293 7.814293-7.814293h7.103716c4.314653 0 7.814293 3.49964 7.814293 7.814293s-3.49964 7.814293-7.814293 7.814293zM687.159134 397.076039h-7.103716c-4.314653 0-7.814293-3.49964-7.814293-7.814292s3.49964-7.814293 7.814293-7.814293h7.103716c4.314653 0 7.814293 3.49964 7.814293 7.814293s-3.49964 7.814293-7.814293 7.814292zM752.98165 397.076039h-7.103716c-4.314653 0-7.814293-3.49964-7.814293-7.814292s3.49964-7.814293 7.814293-7.814293h7.103716c4.314653 0 7.814293 3.49964 7.814293 7.814293s-3.49964 7.814293-7.814293 7.814292zM331.823828 397.076039h-7.103717c-4.314653 0-7.814293-3.49964-7.814292-7.814292s3.49964-7.814293 7.814292-7.814293h7.103717c4.314653 0 7.814293 3.49964 7.814293 7.814293s-3.49964 7.814293-7.814293 7.814292z" fill="#404041" p-id="4818"></path><path d="M295.62641 388.936151m-10.449774 0a10.449774 10.449774 0 1 0 20.899547 0 10.449774 10.449774 0 1 0-20.899547 0Z" fill="#404041" p-id="4819"></path><path d="M277.069512 586.78868m-10.449773 0a10.449774 10.449774 0 1 0 20.899547 0 10.449774 10.449774 0 1 0-20.899547 0Z" fill="#404041" p-id="4820"></path><path d="M689.052298 586.78868m-10.449773 0a10.449774 10.449774 0 1 0 20.899547 0 10.449774 10.449774 0 1 0-20.899547 0Z" fill="#404041" p-id="4821"></path><path d="M716.6071 388.936151m-10.449774 0a10.449774 10.449774 0 1 0 20.899548 0 10.449774 10.449774 0 1 0-20.899548 0Z" fill="#404041" p-id="4822"></path><path d="M332.473995 381.443358h350.89574v15.626538h-350.89574zM828.949846 381.443358H754.401779v15.626538h74.548067c1.524565 0 2.567904 0.136177 3.248788 0.282593v168.910362c0 13.056586-11.002672 14.254531-14.311869 14.311869h-88.583487v15.626537h88.583487c12.034748 0 29.938407-7.972995 29.938407-29.938406V394.787656c0.001024-0.544707-0.213992-13.344297-18.875326-13.344298z" fill="#404041" p-id="4823"></path><path d="M241.079943 580.573696h-20.522757c-3.371654-0.057338-14.37535-1.255283-14.37535-14.311869V397.352489c0.680884-0.147439 1.724223-0.282592 3.249812-0.282593h49.64308v-15.626538h-49.64308c-18.662358 0-18.87635 12.800614-18.87635 13.344298V566.262851c0 21.965412 17.904683 29.938407 29.939431 29.938406h20.585214v-15.627561zM596.631289 580.573696c-35.840082 0-36.431888-45.575184-36.438031-47.501112 0-32.431568-26.819652-41.001488-41.001487-41.001488-1.03822 0-10.421105 0.140272-20.088631 4.974035-9.540563 4.769258-20.913882 14.893436-20.913881 36.027453 0 0.12389-0.057338 12.466828-4.973011 24.755499-6.12181 15.305038-16.413906 22.745612-31.46502 22.745613h-130.586334v15.626538h130.586334c41.183739 0 52.065593-41.292271 52.065593-63.12765 0-24.399187 22.814213-25.346281 25.37495-25.373926 0.064505 0 6.632729 0.090102 13.099588 3.323532 8.260707 4.128306 12.275361 11.342602 12.275362 22.050394 0 21.835378 10.881853 63.12765 52.065592 63.12765h62.588062v-15.626538H596.631289z" fill="#404041" p-id="4824"></path><path d="M234.925368 422.233926H200.827939c-4.314653 0-7.814293-3.49964-7.814293-7.814293s3.49964-7.814293 7.814293-7.814293h34.097429c4.314653 0 7.814293 3.49964 7.814293 7.814293s-3.49964 7.814293-7.814293 7.814293zM519.996544 422.233926h-34.095381c-4.314653 0-7.814293-3.49964-7.814293-7.814293s3.49964-7.814293 7.814293-7.814293h34.095381c4.314653 0 7.814293 3.49964 7.814293 7.814293s-3.49964 7.814293-7.814293 7.814293zM212.668149 470.533668h-12.313245c-4.314653 0-7.814293-3.49964-7.814293-7.814293s3.49964-7.814293 7.814293-7.814292h12.313245c4.314653 0 7.814293 3.49964 7.814293 7.814292s-3.49964 7.814293-7.814293 7.814293zM548.884445 470.533668h-12.313245c-4.314653 0-7.814293-3.49964-7.814293-7.814293s3.49964-7.814293 7.814293-7.814292h12.313245c4.314653 0 7.814293 3.49964 7.814293 7.814292s-3.49964 7.814293-7.814293 7.814293zM231.610028 553.877934h-29.360936c-4.314653 0-7.814293-3.49964-7.814293-7.814293s3.49964-7.814293 7.814293-7.814293h29.360936c4.314653 0 7.814293 3.49964 7.814292 7.814293s-3.49964 7.814293-7.814292 7.814293zM837.743997 553.877934h-29.358888c-4.314653 0-7.814293-3.49964-7.814293-7.814293s3.49964-7.814293 7.814293-7.814293h29.358888c4.314653 0 7.814293 3.49964 7.814292 7.814293s-3.49964 7.814293-7.814292 7.814293z" fill="#404041" p-id="4825"></path></svg>