<?xml version="1.0" standalone="no"?><!DOCTYPE svg PUBLIC "-//W3C//DTD SVG 1.1//EN" "http://www.w3.org/Graphics/SVG/1.1/DTD/svg11.dtd"><svg t="1598651184754" class="icon" viewBox="0 0 1024 1024" version="1.1" xmlns="http://www.w3.org/2000/svg" p-id="34773" xmlns:xlink="http://www.w3.org/1999/xlink" width="128" height="128"><defs><style type="text/css"></style></defs><path d="M903.323852 907.170589h25.879725" fill="#FEDEBB" p-id="34774"></path><path d="M929.203577 918.674964h-25.878701c-6.353208 0-11.502328-5.150143-11.502328-11.502327s5.150143-11.503352 11.502328-11.503352h25.878701c6.353208 0 11.503352 5.150143 11.503352 11.503352s-5.150143 11.502328-11.503352 11.502327z" fill="" p-id="34775"></path><path d="M788.010815 907.170589h64.466891" fill="#FEDEBB" p-id="34776"></path><path d="M852.477706 918.674964h-64.466891c-6.353208 0-11.502328-5.150143-11.502328-11.502327s5.150143-11.503352 11.502328-11.503352h64.466891c6.353208 0 11.502328 5.150143 11.502328 11.503352s-5.149119 11.502328-11.502328 11.502327z" fill="" p-id="34777"></path><path d="M169.680324 907.170589h571.119138" fill="#FEDEBB" p-id="34778"></path><path d="M740.799462 918.674964H169.680324c-6.353208 0-11.503352-5.150143-11.503352-11.502327s5.150143-11.503352 11.503352-11.503352h571.119138c6.353208 0 11.503352 5.150143 11.503352 11.503352s-5.150143 11.502328-11.503352 11.502327z" fill="" p-id="34779"></path><path d="M82.9685 907.170589h33.596749" fill="#FEDEBB" p-id="34780"></path><path d="M116.565249 918.674964H82.969523c-6.353208 0-11.503352-5.150143-11.503351-11.502327s5.150143-11.503352 11.503351-11.503352h33.595726c6.353208 0 11.503352 5.150143 11.503351 11.503352s-5.150143 11.502328-11.503351 11.502327z" fill="" p-id="34781"></path><path d="M173.784056 319.305806a7.261395 7.261395 0 0 1-7.26549 7.263442 7.261395 7.261395 0 0 1-7.262419-7.263442 7.267538 7.267538 0 0 1 7.262419-7.264467 7.267538 7.267538 0 0 1 7.26549 7.264467z" fill="#FED62C" p-id="34782"></path><path d="M339.97805 195.51807c-6.119763 0-11.098917-4.979154-11.098916-11.098917 0-6.119763 4.979154-11.098917 11.098916-11.098917 6.119763 0 11.098917 4.979154 11.098917 11.098917-0.001024 6.119763-4.979154 11.098917-11.098917 11.098917z m0-14.527909a3.434111 3.434111 0 0 0-3.430015 3.430016 3.434111 3.434111 0 0 0 3.430015 3.430016 3.434111 3.434111 0 0 0 3.430016-3.430016 3.434111 3.434111 0 0 0-3.430016-3.430016z" fill="#2BA9FC" p-id="34783"></path><path d="M831.013998 368.620219c0 5.702017-4.622842 10.326907-10.329979 10.326907-5.698946 0-10.31974-4.625914-10.31974-10.326907 0-5.704065 4.620794-10.321788 10.31974-10.321788 5.707137 0 10.329979 4.618747 10.329979 10.321788zM839.85832 617.525717a8.463436 8.463436 0 1 1-16.926872-0.002048 8.463436 8.463436 0 0 1 16.926872 0.002048z" fill="#FD5C1E" p-id="34784"></path><path d="M936.584767 312.041339c0 4.01363-3.245716 7.264466-7.259347 7.264467s-7.264466-3.249812-7.264467-7.264467a7.262419 7.262419 0 0 1 14.523814 0z" fill="#FED62C" p-id="34785"></path><path d="M93.267762 273.279089c-15.891724 0-28.8193-12.9286-28.8193-28.818277 0-15.886605 12.9286-28.811109 28.8193-28.811109s28.8193 12.924504 28.8193 28.811109c0 15.889676-12.927576 28.818276-28.8193 28.818277z m0-49.961509c-11.663078 0-21.151423 9.48425-21.151423 21.142209 0 11.66103 9.488345 21.149375 21.151423 21.149375s21.151423-9.488345 21.151423-21.149375c0-11.656934-9.488345-21.142208-21.151423-21.142209zM925.92612 565.81746c-16.732334 0-30.344889-13.609484-30.344889-30.337722 0-16.725167 13.612555-30.332603 30.344889-30.332602 16.727215 0 30.337722 13.607436 30.337722 30.332602 0 16.728238-13.610508 30.337722-30.337722 30.337722z m0-53.0004c-12.503688 0-22.675988 10.167181-22.675988 22.663702 0 12.498568 10.172301 22.668821 22.675988 22.668821 12.498568 0 22.668821-10.170253 22.668821-22.668821 0-12.49652-10.170253-22.663702-22.668821-22.663702z" fill="#2BA9FC" p-id="34786"></path><path d="M141.53474 424.846881c-15.891724 0-28.820324-12.926552-28.820324-28.817252s12.929624-28.818276 28.820324-28.818277c15.889676 0 28.818276 12.9286 28.818276 28.818277s-12.9286 28.817252-28.818276 28.817252z m0-49.967651c-11.664102 0-21.152447 9.487321-21.152447 21.149375 0 11.66103 9.488345 21.148351 21.152447 21.148351 11.663078 0 21.149375-9.487321 21.149375-21.148351 0-11.662054-9.486298-21.149375-21.149375-21.149375z" fill="#FDD72C" p-id="34787"></path><path d="M416.1029 121.332459a6.367543 6.367543 0 0 1-6.370614-6.366519v-6.367543a6.936823 6.936823 0 0 0-6.940919-6.942966 6.941943 6.941943 0 0 0-6.942966 6.942966v6.367543a6.364471 6.364471 0 0 1-6.364471 6.366519h-6.3614a6.941943 6.941943 0 1 0 0 13.881837h6.3614a6.366519 6.366519 0 0 1 6.364471 6.370614v6.362424a6.939895 6.939895 0 0 0 6.942966 6.942966 6.935799 6.935799 0 0 0 6.940919-6.942966v-6.362424a6.368567 6.368567 0 0 1 6.370614-6.370614h6.363448a6.941943 6.941943 0 0 0 6.942966-6.940919 6.941943 6.941943 0 0 0-6.942966-6.940918h-6.363448z" fill="#FD5C1E" p-id="34788"></path><path d="M858.910778 204.006079a5.166525 5.166525 0 0 1-5.167549-5.171644v-5.170621a5.637513 5.637513 0 0 0-11.272978 0v5.170621a5.166525 5.166525 0 0 1-5.167549 5.171644h-5.167549a5.634441 5.634441 0 0 0-5.636489 5.632393 5.63956 5.63956 0 0 0 5.636489 5.639561h5.167549a5.165501 5.165501 0 0 1 5.167549 5.163454v5.17062a5.632393 5.632393 0 0 0 5.641608 5.632394c3.112611 0 5.631369-2.517734 5.63137-5.632394v-5.17062a5.165501 5.165501 0 0 1 5.167549-5.163454h5.164478a5.637513 5.637513 0 0 0 5.63956-5.639561 5.631369 5.631369 0 0 0-5.63956-5.632393h-5.164478z" fill="#2BA9FC" p-id="34789"></path><path d="M807.684771 482.869439a6.422833 6.422833 0 0 1-6.43-6.426929v-6.426928a7.010543 7.010543 0 0 0-14.020061 0v6.426928a6.423857 6.423857 0 0 1-6.427952 6.426929h-6.420785c-3.874382 0-7.016686 3.142304-7.016686 7.008495 0 3.87131 3.143328 7.007471 7.016686 7.007471h6.420785a6.43 6.43 0 0 1 6.427952 6.435119v6.426928a7.011567 7.011567 0 0 0 7.007471 7.008495 7.008495 7.008495 0 0 0 7.01259-7.008495v-6.426928a6.43 6.43 0 0 1 6.43-6.435119h6.420785a7.010543 7.010543 0 0 0 7.014639-7.007471c0-3.866191-3.143328-7.008495-7.014639-7.008495h-6.420785z" fill="#FDD62C" p-id="34790"></path><path d="M222.111444 114.863551a4.855264 4.855264 0 0 0-4.856289 4.85936l-0.003071 21.354152c0 2.678484 2.17678 4.841954 4.860383 4.85936 2.674388 0 4.848097-2.180876 4.855265-4.85936v-21.354152a4.857312 4.857312 0 0 0-4.856288-4.85936zM222.11042 188.654967a4.85424 4.85424 0 0 0-4.857312 4.853216l0.003071 21.358248a4.857312 4.857312 0 0 0 9.712576 0v-21.358248a4.860384 4.860384 0 0 0-4.858335-4.853216zM200.14296 152.196458c1.894188 1.893164 4.967892 1.885997 6.866175-0.013311 1.89214-1.887021 1.89214-4.958677 0-6.864127l-15.107428-15.098213a4.838882 4.838882 0 0 0-6.862079 0c-1.896236 1.894188-1.902379 4.973011 0 6.860032l15.103332 15.115619zM244.076855 182.39186a4.848097 4.848097 0 0 0-6.861055 0.007167 4.853216 4.853216 0 0 0 0 6.866175l15.10538 15.109476a4.871646 4.871646 0 0 0 6.866175 0c1.893164-1.902379 1.898283-4.986322 0-6.873342l-15.1105-15.109476zM200.752172 167.291599a4.85936 4.85936 0 0 0-4.861408-4.851168h-21.354152a4.853216 4.853216 0 0 0-4.856288 4.851168 4.862431 4.862431 0 0 0 4.856288 4.85936h21.359272c2.680532 0 4.851169-2.180876 4.856288-4.85936zM269.688323 162.440431h-21.364391a4.853216 4.853216 0 0 0-4.851169 4.855264 4.849121 4.849121 0 0 0 4.856288 4.855264h21.359272c2.679508 0 4.853216-2.180876 4.853216-4.85936a4.847073 4.847073 0 0 0-4.853216-4.851168zM200.14296 182.400051l-15.103332 15.102309a4.863455 4.863455 0 0 0 0 6.873342c1.894188 1.887021 4.968915 1.894188 6.862079 0l15.107428-15.109476c1.896236-1.893164 1.89214-4.973011 0-6.873342a4.852193 4.852193 0 0 0-6.866175 0.007167zM244.080951 152.196458l15.10538-15.115619a4.853216 4.853216 0 0 0 0-6.860032 4.842978 4.842978 0 0 0-6.866175 0l-15.10538 15.101285a4.866527 4.866527 0 0 0 0 6.874366 4.858336 4.858336 0 0 0 6.866175 0z" fill="#FED62C" p-id="34791"></path><path d="M661.152447 550.392628h-100.757483l32.398803-126.832771c1.258355-7.944326-5.105092-14.387637-14.213576-14.387636h-71.344329c0.027645-0.177132 0.101365-0.33993 0.12389-0.517062l17.037452-170.876222c1.013646-7.974019-2.858688-9.413602-8.64364-3.213976L343.023085 411.876302c-5.783928 6.193482-3.087014 11.222807 6.019422 11.222807h100.523014c-0.032764 0.154607-0.10546 0.305118-0.126962 0.460748l-32.545219 127.400003c-1.259379 7.944326 5.105092 14.384565 14.211528 14.384565h71.667877l-16.972947 170.367351c-1.010575 7.972995 2.857664 9.413602 8.640569 3.212952l172.731502-177.30315c5.782904-6.198602 3.087014-11.22895-6.019422-11.22895z" fill="#FDD72C" p-id="34792"></path><path d="M661.152447 550.392628h-100.757483l32.398803-126.832771c1.258355-7.944326-5.105092-14.387637-14.213576-14.387636h-71.344329c0.027645-0.177132 0.101365-0.33993 0.12389-0.517062l17.037452-170.876222c1.013646-7.974019-2.858688-9.413602-8.64364-3.213976l-15.844626 16.265442-21.184187 163.882061c-0.023549 0.177132-0.095221 0.340954-0.124914 0.518086h71.349449c9.106436 0 15.471931 6.441263 14.211528 14.385589l-32.397779 126.833795h100.753387c9.106436 0 11.805398 5.022158 6.02147 11.221783L487.938695 714.24602l-2.138897 21.46678c-1.010575 7.972995 2.857664 9.413602 8.640569 3.212952l172.731502-177.30315c5.782904-6.199626 3.087014-11.229974-6.019422-11.229974z" fill="#ED8A23" p-id="34793"></path><path d="M454.011231 800.994705c-5.279153 0-10.597213-1.23071-15.072616-3.329675-9.23135-4.328987-14.296511-12.316317-13.217336-20.849377l19.493753-178.728399H397.15795c-10.524517 0-20.982482-4.591102-27.290639-11.979458-4.742637-5.554578-6.765834-12.319388-5.697922-19.046315l0.188395-0.933783 27.889612-113.74854c-11.556594-0.053242-28.464012-0.107508-44.119218-0.158703-14.664086-0.046075-29.327147-0.093174-40.335963-0.140272-6.335802-0.027645-10.985266-0.047099-14.461356-0.143344h-3.881549v-0.172013c-4.421137-0.304094-6.012255-0.941974-7.421121-2.338554-4.330011-2.136849-7.69245-5.566865-9.624522-10.013598a19.76713 19.76713 0 0 1-1.027981-3.003056l-6.063449-7.477434h5.597581c0.58771-4.868575 2.870974-9.704385 6.700306-13.804022l107.04721-115.180956c4.326939-4.649463 11.603692-4.917721 16.257252-0.594877 4.652535 4.324892 4.919769 11.603692 0.594877 16.257251l-105.400803 113.405538c10.432368 0.067576 32.266722 0.137201 52.093237 0.200682 14.663062 0.046075 29.3251 0.093174 40.332891 0.141296 23.59339 0.100341 23.59339 0.100341 27.072552 4.149807l3.853904 4.486666-32.545219 132.738541c0.534468 1.195898 4.901339 4.348441 10.241925 4.348441h73.708481l-22.01763 201.851825c2.131729 0.926616 5.78188 1.375078 7.321804 0.756651l0.117747-0.112628 235.424-226.961588H559.175516l39.692963-141.056586c0.244709-1.953573 0.034812-3.132065-0.124914-3.596909-0.304094-0.098293-0.948118-0.232422-1.982242-0.232422H503.59083l2.189067-13.361703c0.109556-0.762795 3.867215-26.848321 4.209192-29.25138l19.820372-185.075464c-0.768938 0.539588-1.46518 1.116035-2.017054 1.705793l-37.781368 40.643128c-4.325915 4.655607-11.604716 4.918745-16.256228 0.59283-4.653559-4.325915-4.919769-11.603692-0.593853-16.257251l37.793655-40.655415c7.254228-7.782552 23.160286-15.792407 34.196746-10.616667 6.261059 2.934455 9.575376 9.290735 8.649783 16.58899l-20.955861 195.714656c-0.041979 0.340954-1.286 8.990737-2.431727 16.96578h66.348793c10.297215 0 16.265442 4.460044 19.45894 8.200298 4.848097 5.675396 6.724879 13.783544 5.287344 22.827523l-0.286688 1.310573-31.670821 112.547523h108.914778c14.793095 0 19.830611 7.925896 21.311149 11.333387 1.423201 3.277457 3.737181 11.967172-5.494169 21.849712l-0.42184 0.426961-241.43216 232.751659c-4.784616 4.950486-11.567856 7.024877-18.417649 7.024878z" fill="" p-id="34794"></path><path d="M434.755019 274.443246c-2.805446 0-5.617035-1.018766-7.830675-3.080871-4.653559-4.325915-4.915673-11.603692-0.588734-16.256227l6.986994-7.512247c4.323868-4.653559 11.609836-4.917721 16.256227-0.588734 4.653559 4.325915 4.915673 11.603692 0.588734 16.256228l-6.986993 7.512246a11.473659 11.473659 0 0 1-8.425553 3.669605z" fill="" p-id="34795"></path></svg>