<?xml version="1.0" standalone="no"?><!DOCTYPE svg PUBLIC "-//W3C//DTD SVG 1.1//EN" "http://www.w3.org/Graphics/SVG/1.1/DTD/svg11.dtd"><svg t="1600921581687" class="icon" viewBox="0 0 1024 1024" version="1.1" xmlns="http://www.w3.org/2000/svg" p-id="2646" width="500" height="500" xmlns:xlink="http://www.w3.org/1999/xlink"><defs><style type="text/css"></style></defs><path d="M981.242 403.41L970.618 129.82c-0.438-11.438-9.844-20.5-21.312-20.5h-106.652c-11.468 0-20.876 9.062-21.312 20.5l-10.656 274.684a21.118 21.118 0 0 0 5.938 15.592c4 4.188 9.562 6.562 15.376 6.562h128.028c11.782 0 21.312-9.562 21.312-21.342a20.392 20.392 0 0 0-0.098-1.906z" fill="#ED5564" p-id="2647"></path><path d="M815.622 277.318h160.746l-1.658-42.656h-157.432zM812.308 362.66h167.372l-1.656-42.656h-164.06z" fill="#DA4453" p-id="2648"></path><path d="M481.968 563.532l-12.936-7.468v-88.156l12.936-7.468 47.376 5.688 120.124-135.466-177.388 36.312-18.734 43.876-13.64 7.874-75.656-43.686v-15.75l28.624-38.186-57.264-171.782-57.264 171.778 28.64 38.186v17.312l-74.294 42.906-15-8.656-18.75-43.876-177.406-36.31 120.138 135.466 47.376-5.688 15.686 9.062v84.968l-15.686 9.062-47.376-5.688-120.138 135.464 177.402-36.278 18.75-43.906 15-8.656 74.294 42.906v17.308l-28.64 38.188 57.264 171.782 57.264-171.782-28.624-38.188v-15.746l75.656-43.688 13.64 7.876 18.734 43.876 177.388 36.308-120.124-135.464-47.372 5.69z m-145.028-8.876c-23.562 0-42.656-19.094-42.656-42.656 0-23.594 19.092-42.688 42.656-42.688 23.562 0 42.67 19.094 42.67 42.688 0.002 23.562-19.108 42.656-42.67 42.656z" fill="#F6BB42" p-id="2649"></path><path d="M1017.742 432.908l-42.688-42.686c-4-4-9.406-6.218-15.062-6.218h-127.996a21.33 21.33 0 0 0-15.094 6.218l-42.656 42.686c-4 4-6.25 9.406-6.25 15.092 0 200.874 255.996 429.432 255.996 0 0-5.686-2.25-11.092-6.25-15.092z" fill="#AAB2BC" p-id="2650"></path><path d="M767.996 448c0 200.874 29.468 343.276 54.188 427.338 27.188 92.402 54.56 136.778 55.716 138.622a21.372 21.372 0 0 0 16.624 9.968c0.5 0.032 0.968 0.062 1.468 0.062V490.658l-126.466-50.592a21.37 21.37 0 0 0-1.53 7.934z" fill="#E6E9ED" p-id="2651"></path><path d="M1023.992 448c0 200.874-29.468 343.276-54.218 427.338-27.156 92.402-54.562 136.778-55.688 138.622a21.376 21.376 0 0 1-16.654 9.968c-0.468 0.032-0.968 0.062-1.438 0.062V490.658l126.466-50.592c0.97 2.498 1.532 5.184 1.532 7.934z" fill="#CCD1D9" p-id="2652"></path><path d="M335.41 895.996c-9.172 0-17.328-5.906-20.234-14.594l-57.264-171.812a21.286 21.286 0 0 1 3.172-19.532l23.266-31.028-50.764-29.282-15.218 35.652a21.314 21.314 0 0 1-15.344 12.5l-177.402 36.312a21.34 21.34 0 0 1-22.75-10.218 21.36 21.36 0 0 1 2.516-24.844l120.138-135.464a21.28 21.28 0 0 1 18.514-7.032l39.172 4.718v-58.78l-39.172 4.718a21.28 21.28 0 0 1-18.514-7.032L5.384 344.816a21.316 21.316 0 0 1-2.516-24.812 21.312 21.312 0 0 1 22.75-10.25l177.402 36.312a21.314 21.314 0 0 1 15.344 12.5l15.218 35.656 50.764-29.282-23.266-31.032a21.282 21.282 0 0 1-3.172-19.53l57.264-171.81a21.348 21.348 0 0 1 20.234-14.562 21.32 21.32 0 0 1 20.234 14.562l57.264 171.81a21.282 21.282 0 0 1-3.172 19.53l-22.438 29.906 50.484 29.156 14.688-34.406a21.314 21.314 0 0 1 15.344-12.5l177.372-36.312a21.358 21.358 0 0 1 22.782 10.25 21.37 21.37 0 0 1-2.532 24.812l-120.124 135.466a21.3 21.3 0 0 1-18.516 7.032l-36.438-4.376v58.092l36.438-4.376a21.3 21.3 0 0 1 18.516 7.032l119.53 134.808c3.718 3.812 6 9.062 6 14.812 0 11.5-9.094 20.876-20.468 21.312a20.87 20.87 0 0 1-5.188-0.406l-177.372-36.312a21.314 21.314 0 0 1-15.344-12.5l-14.688-34.402-50.484 29.156 22.438 29.902a21.286 21.286 0 0 1 3.172 19.532l-57.264 171.812a21.34 21.34 0 0 1-20.23 14.598z m-33.484-189.282l33.484 100.468 33.5-100.468-21.936-29.218a21.428 21.428 0 0 1-4.266-12.812v-15.746c0-7.624 4.062-14.656 10.672-18.468l75.654-43.688a21.348 21.348 0 0 1 21.344 0l13.624 7.876c4 2.312 7.14 5.844 8.952 10.094l14.36 33.594 103.75 21.25-70.266-79.25-36.282 4.376a21.256 21.256 0 0 1-13.218-2.718l-12.936-7.468a21.306 21.306 0 0 1-10.672-18.468v-88.156c0-7.624 4.062-14.656 10.672-18.468l12.936-7.468c4-2.312 8.64-3.28 13.218-2.718l36.282 4.374 70.266-79.248-103.75 21.25-14.36 33.592a21.306 21.306 0 0 1-8.952 10.094l-13.624 7.876a21.318 21.318 0 0 1-21.328 0l-75.67-43.686a21.34 21.34 0 0 1-10.672-18.468v-15.75c0-4.624 1.5-9.094 4.266-12.812l21.936-29.218-33.5-100.466-33.484 100.466 21.92 29.218a21.428 21.428 0 0 1 4.266 12.812v17.312c0 7.624-4.062 14.688-10.672 18.5l-74.294 42.874a21.318 21.318 0 0 1-21.328 0l-15-8.656a21.32 21.32 0 0 1-8.954-10.094l-14.342-33.592-103.764-21.25 70.264 79.248 36.282-4.374a21.256 21.256 0 0 1 13.218 2.718l15.688 9.032a21.39 21.39 0 0 1 10.672 18.5v84.968c0 7.624-4.078 14.688-10.672 18.5L199.52 582c-4 2.312-8.64 3.282-13.218 2.718l-36.282-4.376-70.264 79.25 103.764-21.25 14.342-33.594a21.312 21.312 0 0 1 8.954-10.094l15-8.656a21.348 21.348 0 0 1 21.344 0l74.28 42.876a21.358 21.358 0 0 1 10.672 18.5v17.308c0 4.624-1.5 9.094-4.266 12.812l-21.92 29.22z" fill="#FFCE54" p-id="2653"></path><path d="M336.94 576c-35.28 0-64-28.718-64-64 0-35.312 28.718-64 64-64 35.296 0 64 28.688 64 64 0 35.282-28.704 64-64 64z m0-85.342c-11.766 0-21.328 9.562-21.328 21.344 0 11.75 9.562 21.312 21.328 21.312s21.344-9.562 21.344-21.312c0-11.782-9.578-21.344-21.344-21.344z" fill="#FFCE54" p-id="2654"></path><path d="M895.994 0.008c-58.81 0-106.686 47.844-106.686 106.656s47.876 106.654 106.686 106.654 106.654-47.842 106.654-106.654S954.804 0.008 895.994 0.008z" fill="#E6E9ED" p-id="2655"></path><path d="M917.304 106.664c0 11.78-9.53 21.342-21.31 21.342s-21.344-9.562-21.344-21.342c0-11.782 9.562-21.344 21.344-21.344s21.31 9.562 21.31 21.344z" fill="#CCD1D9" p-id="2656"></path></svg>