<?xml version="1.0" standalone="no"?><!DOCTYPE svg PUBLIC "-//W3C//DTD SVG 1.1//EN" "http://www.w3.org/Graphics/SVG/1.1/DTD/svg11.dtd"><svg t="1598651220199" class="icon" viewBox="0 0 1024 1024" version="1.1" xmlns="http://www.w3.org/2000/svg" p-id="4568" xmlns:xlink="http://www.w3.org/1999/xlink" width="128" height="128"><defs><style type="text/css"></style></defs><path d="M341.881453 313.023245c-6.822148 0-12.369559-5.550482-12.369558-12.370582 0-6.821124 5.547411-12.370582 12.369558-12.370583s12.369559 5.550482 12.369559 12.370583c0 6.8201-5.547411 12.370582-12.369559 12.370582m0-37.110723c-13.661702 0-24.739117 11.077415-24.739117 24.739117 0 13.662726 11.077415 24.739117 24.739117 24.739117 13.661702 0 24.739117-11.077415 24.739117-24.739117 0-13.661702-11.077415-24.739117-24.739117-24.739117M93.821684 610.434287c-6.822148 0-12.369559-5.550482-12.369559-12.370582 0-6.821124 5.547411-12.370582 12.369559-12.370583 6.822148 0 12.369559 5.550482 12.369559 12.370583 0.001024 6.8201-5.547411 12.370582-12.369559 12.370582m0-37.110723c-13.661702 0-24.739117 11.077415-24.739117 24.739117 0 13.661702 11.077415 24.739117 24.739117 24.739117s24.739117-11.077415 24.739117-24.739117c0.001024-13.661702-11.076391-24.739117-24.739117-24.739117M352.270818 746.116499l13.143616-13.142592c2.363127-2.356984 2.39282-6.308157-0.024574-8.720431a6.143312 6.143312 0 0 0-8.720431-0.025598l-13.143616 13.142593L330.383221 724.227878c-2.35596-2.362103-6.308157-2.394868-8.720431 0.025598a6.143312 6.143312 0 0 0-0.024573 8.720431l13.143615 13.142592-13.143615 13.142592c-2.363127 2.35596-2.39282 6.308157 0.024573 8.720431a6.14024 6.14024 0 0 0 8.720431 0.025597l13.143616-13.142592 13.143616 13.142592c2.35596 2.364151 6.302014 2.394868 8.720431-0.025597a6.143312 6.143312 0 0 0 0.024573-8.720431l-13.144639-13.142592zM166.277953 774.965492a6.174029 6.174029 0 0 0 6.184267-6.186315c0-3.437183-2.76449-6.184267-6.184267-6.184268a6.169933 6.169933 0 0 0-6.184267 6.184268 6.166861 6.166861 0 0 0 6.184267 6.186315M238.704529 725.367463a6.174029 6.174029 0 0 0 6.184267-6.186315c0-3.437183-2.76449-6.184267-6.184267-6.184268a6.169933 6.169933 0 0 0-6.184267 6.184268 6.166861 6.166861 0 0 0 6.184267 6.186315M199.527605 273.206393a6.174029 6.174029 0 0 0 6.184267-6.186315c0-3.437183-2.76449-6.184267-6.184267-6.184268a6.169933 6.169933 0 0 0-6.184267 6.184268 6.166861 6.166861 0 0 0 6.184267 6.186315M86.53674 509.577487a6.174029 6.174029 0 0 0 6.184267-6.186315c0-3.437183-2.76449-6.184267-6.184267-6.184267a6.169933 6.169933 0 0 0-6.184267 6.184267 6.166861 6.166861 0 0 0 6.184267 6.186315M173.909994 670.812805a6.170957 6.170957 0 0 0 6.184267-6.184267c0-3.439231-2.76449-6.186315-6.184267-6.186316a6.171981 6.171981 0 0 0-6.184267 6.186316 6.166861 6.166861 0 0 0 6.184267 6.184267M271.315277 563.017134a6.170957 6.170957 0 0 0 6.184267-6.184267c0-3.439231-2.76449-6.186315-6.184267-6.186315a6.171981 6.171981 0 0 0-6.184268 6.186315 6.166861 6.166861 0 0 0 6.184268 6.184267" fill="#404041" p-id="4569"></path><path d="M170.447214 546.756811a3.245716 3.245716 0 0 1-3.247764-3.245716v-13.506072a3.245716 3.245716 0 0 1 3.247764-3.245716 3.245716 3.245716 0 0 1 3.247764 3.245716v13.506072a3.245716 3.245716 0 0 1-3.247764 3.245716z" fill="#404041" p-id="4570"></path><path d="M177.202809 540.005311h-13.510167a3.245716 3.245716 0 1 1 0-6.491433h13.510167a3.245716 3.245716 0 1 1 0 6.491433z" fill="#404041" p-id="4571"></path><path d="M254.864511 467.533684a3.245716 3.245716 0 0 1-3.247764-3.245716v-13.506072a3.245716 3.245716 0 0 1 3.247764-3.245716 3.245716 3.245716 0 0 1 3.247764 3.245716v13.506072a3.245716 3.245716 0 0 1-3.247764 3.245716z" fill="#404041" p-id="4572"></path><path d="M261.620107 460.778089h-13.50812a3.245716 3.245716 0 1 1 0-6.491433h13.50812a3.245716 3.245716 0 1 1 0 6.491433z" fill="#404041" p-id="4573"></path><path d="M161.49948 400.305374a3.245716 3.245716 0 0 1-3.247764-3.245717v-13.510167a3.245716 3.245716 0 0 1 3.247764-3.245716 3.245716 3.245716 0 0 1 3.247764 3.245716v13.510167a3.245716 3.245716 0 0 1-3.247764 3.245717z" fill="#404041" p-id="4574"></path><path d="M168.253028 393.550802h-13.508119a3.245716 3.245716 0 1 1 0-6.491433h13.508119a3.245716 3.245716 0 1 1 0 6.491433z" fill="#404041" p-id="4575"></path><path d="M248.372054 325.195194a3.245716 3.245716 0 0 1-3.247764-3.245716v-13.506072a3.245716 3.245716 0 0 1 3.247764-3.245716 3.245716 3.245716 0 0 1 3.247765 3.245716v13.506072a3.245716 3.245716 0 0 1-3.247765 3.245716z" fill="#404041" p-id="4576"></path><path d="M255.12765 318.439599h-13.510167a3.245716 3.245716 0 1 1 0-6.491433h13.510167a3.245716 3.245716 0 1 1 0 6.491433z" fill="#404041" p-id="4577"></path><path d="M680.150639 313.023245c-6.822148 0-12.369559-5.550482-12.369558-12.370582 0-6.821124 5.547411-12.370582 12.369558-12.370583s12.369559 5.550482 12.369559 12.370583c0.001024 6.8201-5.547411 12.370582-12.369559 12.370582m0-37.110723c-13.661702 0-24.739117 11.077415-24.739117 24.739117 0 13.662726 11.077415 24.739117 24.739117 24.739117s24.739117-11.077415 24.739117-24.739117c0.001024-13.661702-11.076391-24.739117-24.739117-24.739117M928.210408 610.434287c-6.822148 0-12.369559-5.550482-12.369558-12.370582 0-6.821124 5.547411-12.370582 12.369558-12.370583 6.822148 0 12.369559 5.550482 12.369559 12.370583 0 6.8201-5.547411 12.370582-12.369559 12.370582m0-37.110723c-13.661702 0-24.739117 11.077415-24.739117 24.739117 0 13.661702 11.077415 24.739117 24.739117 24.739117s24.739117-11.077415 24.739118-24.739117c0-13.661702-11.077415-24.739117-24.739118-24.739117M669.761275 746.116499l-13.143616-13.142592c-2.363127-2.356984-2.39282-6.308157 0.024573-8.720431a6.143312 6.143312 0 0 1 8.720431-0.025598l13.143616 13.142593L691.649895 724.227878c2.35596-2.362103 6.308157-2.394868 8.720432 0.025598a6.143312 6.143312 0 0 1 0.024573 8.720431l-13.143616 13.142592 13.143616 13.142592c2.363127 2.35596 2.393844 6.308157-0.024573 8.720431a6.14024 6.14024 0 0 1-8.720432 0.025597l-13.143616-13.142592-13.143616 13.142592c-2.35596 2.364151-6.302014 2.394868-8.720431-0.025597a6.143312 6.143312 0 0 1-0.024573-8.720431l13.143616-13.142592zM855.75414 774.965492a6.174029 6.174029 0 0 1-6.184268-6.186315c0-3.437183 2.76449-6.184267 6.184268-6.184268a6.169933 6.169933 0 0 1 6.184267 6.184268 6.166861 6.166861 0 0 1-6.184267 6.186315M783.327563 725.367463a6.174029 6.174029 0 0 1-6.184267-6.186315c0-3.437183 2.76449-6.184267 6.184267-6.184268a6.169933 6.169933 0 0 1 6.184268 6.184268 6.166861 6.166861 0 0 1-6.184268 6.186315M822.504487 273.206393a6.174029 6.174029 0 0 1-6.184267-6.186315c0-3.437183 2.76449-6.184267 6.184267-6.184268a6.169933 6.169933 0 0 1 6.184268 6.184268 6.165837 6.165837 0 0 1-6.184268 6.186315M935.495353 509.577487a6.174029 6.174029 0 0 1-6.184268-6.186315c0-3.437183 2.76449-6.184267 6.184268-6.184267a6.169933 6.169933 0 0 1 6.184267 6.184267 6.166861 6.166861 0 0 1-6.184267 6.186315M848.122098 670.812805a6.170957 6.170957 0 0 1-6.184267-6.184267c0-3.439231 2.76449-6.186315 6.184267-6.186316a6.171981 6.171981 0 0 1 6.184268 6.186316 6.166861 6.166861 0 0 1-6.184268 6.184267M750.716816 563.017134a6.170957 6.170957 0 0 1-6.184268-6.184267c0-3.439231 2.76449-6.186315 6.184268-6.186315a6.171981 6.171981 0 0 1 6.184267 6.186315 6.166861 6.166861 0 0 1-6.184267 6.184267" fill="#404041" p-id="4578"></path><path d="M851.584878 546.756811a3.245716 3.245716 0 0 1-3.247764-3.245716v-13.506072c0-1.793847 1.453917-3.245716 3.247764-3.245716s3.247764 1.451869 3.247765 3.245716v13.506072a3.24674 3.24674 0 0 1-3.247765 3.245716z" fill="#404041" p-id="4579"></path><path d="M858.33945 540.005311h-13.510167a3.245716 3.245716 0 1 1 0-6.491433h13.510167a3.245716 3.245716 0 1 1 0 6.491433z" fill="#404041" p-id="4580"></path><path d="M767.167581 467.533684a3.245716 3.245716 0 0 1-3.247764-3.245716v-13.506072c0-1.793847 1.453917-3.245716 3.247764-3.245716s3.247764 1.451869 3.247764 3.245716v13.506072a3.24674 3.24674 0 0 1-3.247764 3.245716z" fill="#404041" p-id="4581"></path><path d="M773.920105 460.778089H760.411986a3.245716 3.245716 0 1 1 0-6.491433h13.508119a3.245716 3.245716 0 1 1 0 6.491433z" fill="#404041" p-id="4582"></path><path d="M860.53466 400.305374a3.245716 3.245716 0 0 1-3.247764-3.245717v-13.510167a3.245716 3.245716 0 0 1 3.247764-3.245716 3.245716 3.245716 0 0 1 3.247764 3.245716v13.510167a3.245716 3.245716 0 0 1-3.247764 3.245717z" fill="#404041" p-id="4583"></path><path d="M867.288208 393.550802H853.780089a3.245716 3.245716 0 1 1 0-6.491433h13.508119a3.245716 3.245716 0 1 1 0 6.491433z" fill="#404041" p-id="4584"></path><path d="M773.660038 325.195194a3.245716 3.245716 0 0 1-3.247764-3.245716v-13.506072c0-1.793847 1.453917-3.245716 3.247764-3.245716s3.247764 1.451869 3.247764 3.245716v13.506072a3.245716 3.245716 0 0 1-3.247764 3.245716z" fill="#404041" p-id="4585"></path><path d="M780.415633 318.439599h-13.510166a3.245716 3.245716 0 1 1 0-6.491433h13.510166a3.245716 3.245716 0 1 1 0 6.491433z" fill="#404041" p-id="4586"></path><path d="M601.905323 700.491145s0 55.713696-46.42808 55.713696h-46.428081-46.42808c-46.42808 0-46.42808-55.713696-46.42808-55.713696h185.712321z" fill="#F2C928" p-id="4587"></path><path d="M591.799574 709.776761c-2.106132 13.574672-9.609164 37.142464-36.322331 37.142464h-92.856161c-26.53706 0-34.115859-23.567792-36.278304-37.142464h165.456796m10.105749-9.285616H416.194026s0 55.713696 46.42808 55.713696h92.85616c46.42808 0 46.427056-55.713696 46.427057-55.713696z" fill="#3D3C3E" p-id="4588"></path><path d="M489.504216 654.063065v9.285616h130.045722c-0.708529 4.34025-1.959717 9.710528-4.163117 14.99992-6.207817 14.899579-16.692402 22.142544-32.05273 22.142544H434.765258c-15.21084 0-25.637065-7.102692-31.872526-21.71456-2.321148-5.437855-3.620459-10.976051-4.347417-15.427904h25.156862v-9.285616h-35.364999s0 55.713696 46.42808 55.713696h148.569856c46.42808 0 46.42808-55.713696 46.428081-55.713696H489.504216z" fill="#3D3C3E" p-id="4589"></path><path d="M397.727231 341.472923h233.772473l22.728206 9.885613 11.688675 20.429584 6.493481 32.291295-0.649143 210.225159-4.546051 19.770202-17.533012 15.81698-18.831299 9.225207-238.967668 1.318764-18.832323-3.294863-11.688675-7.90849-11.688674-17.134721-4.545027-32.950677V394.853184l7.142624-23.724446 12.337818-19.11082 16.883869-9.885613z" fill="#F2C928" p-id="4590"></path><path d="M382.141648 510.431408s249.358056 0 251.305486 1.298286c1.948454 1.298287 7.792791 4.546051 7.792791 4.546051l1.948454 19.481466v77.923817l-2.597597 13.637128-13.637129 3.895884H384.739245l-5.195194-1.948454-5.844337-12.986961 1.298286-89.612492 3.895884-13.637128 3.247764-2.597597zM379.051562 384.781225s0-18.571232 18.571232-18.571233h222.853761s18.571232 0 18.571232 18.571233v83.570544s0 18.571232-18.571232 18.571232H397.622794s-18.571232 0-18.571232-18.571232v-83.570544z" fill="#33B88C" p-id="4591"></path><path d="M620.399763 375.495608c4.278817 0.116723 9.362407 1.826611 9.362408 9.285617l0.001024 83.460988c-0.108532 4.285984-1.808181 9.395172-9.28664 9.395172l-222.744205 0.001023c-4.285984-0.108532-9.395172-1.808181-9.395172-9.286639v-83.570544c0-2.792135 0.905115-9.285616 9.285616-9.285617h222.776969m0.076792-9.285616H397.622794c-18.571232 0-18.571232 18.571232-18.571232 18.571233v83.570544c0 18.571232 18.571232 18.571232 18.571232 18.571232h222.853761c18.571232 0 18.571232-18.571232 18.571232-18.571232v-83.570544c0-18.571232-18.571232-18.571232-18.571232-18.571233z" fill="#3D3C3E" p-id="4592"></path><path d="M396.103348 659.136417h228.578304l-3.571312 25.163005-23.37735 16.721072-35.715168 4.870622-143.186267-2.597597s-11.039532-2.273025-14.286272-9.091078c-3.24674-6.818052-11.039532-25.000208-11.039532-25.000208l0.649144-10.71496 1.948453-0.649143v1.298287zM622.084055 341.811829H393.505751l6.493481-19.156894 20.455181-22.728207 35.715168-4.870622 143.186267 2.597597s11.039532 2.273025 14.286272 9.091078c3.24674 6.818052 11.039532 25.001232 11.039532 25.001231l-0.649144 10.71496-1.948453 0.649144v-1.298287z" fill="#F26E3F" p-id="4593"></path><path d="M506.30003 347.69405h-21.668485a4.676084 4.676084 0 0 1 0-9.352168h21.668485a4.676084 4.676084 0 0 1 0 9.352168zM587.632361 347.69405h-41.524693a4.676084 4.676084 0 0 1 0-9.352168h41.524693a4.676084 4.676084 0 0 1 0 9.352168z" fill="#404041" p-id="4594"></path><path d="M397.622794 384.781225h222.853761v83.570544H397.622794z" fill="#F26E3F" p-id="4595"></path><path d="M611.190939 394.066841v64.999312H406.90841v-64.999312H611.190939m9.285616-9.285616H397.622794v83.570544h222.853761v-83.570544z" fill="#3D3C3E" p-id="4596"></path><path d="M601.905323 301.211704s0-55.713696-46.42808-55.713696h-46.428081-46.42808c-46.42808 0-46.42808 55.713696-46.42808 55.713696h185.712321z" fill="#F2C928" p-id="4597"></path><path d="M555.477243 254.783624c26.53706 0 34.115859 23.567792 36.278304 37.142464H426.299774c2.106132-13.574672 9.609164-37.142464 36.322332-37.142464h92.855137m0-9.285616h-46.428081-46.42808c-46.42808 0-46.42808 55.713696-46.42808 55.713696H601.904299c0.001024 0 0.001024-55.713696-46.427056-55.713696zM629.685379 514.779849c4.279841 0.116723 9.362407 1.826611 9.362408 9.285616l0.001024 92.746604c-0.108532 4.285984-1.808181 9.395172-9.28664 9.395172H388.337178c-2.792135 0-9.285616-0.905115-9.285616-9.285616l-0.001024-92.745581c0.108532-4.285984 1.808181-9.395172 9.28664-9.395171h241.348201m0.076792-9.28664H388.337178c-18.571232 0-18.571232 18.571232-18.571232 18.571232v92.85616c0 18.571232 18.571232 18.571232 18.571232 18.571232h241.424993c18.571232 0 18.571232-18.571232 18.571232-18.571232v-92.85616c0-18.571232-18.571232-18.571232-18.571232-18.571232z" fill="#3D3C3E" p-id="4598"></path><path d="M493.833203 338.353144h-95.284816c0.708529-4.34025 1.959717-9.710528 4.163117-14.99992 6.207817-14.899579 16.692402-22.142544 32.05273-22.142544h148.569857c15.21084 0 25.637065 7.102692 31.872526 21.71456 2.321148 5.437855 3.620459 10.976051 4.347417 15.427904h-40.869407v9.285616h51.077544s0-55.713696-46.42808-55.713696h-74.284929-74.284928c-46.42808 0-46.42808 55.713696-46.42808 55.713696H493.833203v-9.285616z" fill="#3D3C3E" p-id="4599"></path><path d="M526.032348 344.138097m-9.795511 0a9.795511 9.795511 0 1 0 19.591022 0 9.795511 9.795511 0 1 0-19.591022 0Z" fill="#404041" p-id="4600"></path><path d="M433.405539 663.342538h-21.668486a4.676084 4.676084 0 0 1 0-9.352169h21.668486a4.676084 4.676084 0 0 1 0 9.352169zM514.739917 663.342538h-41.524693a4.676084 4.676084 0 0 1 0-9.352169h41.524693a4.676084 4.676084 0 0 1 0 9.352169z" fill="#404041" p-id="4601"></path><path d="M453.139904 659.786584m-9.795511 0a9.795511 9.795511 0 1 0 19.591022 0 9.795511 9.795511 0 1 0-19.591022 0Z" fill="#404041" p-id="4602"></path><path d="M346.607708 462.977395a4.676084 4.676084 0 0 1-4.676084-4.676085v-21.666437a4.676084 4.676084 0 0 1 9.352168 0v21.666437a4.676084 4.676084 0 0 1-4.676084 4.676085zM346.607708 544.313821a4.676084 4.676084 0 0 1-4.676084-4.676084v-41.526741a4.676084 4.676084 0 0 1 9.352168 0v41.526741a4.676084 4.676084 0 0 1-4.676084 4.676084z" fill="#404041" p-id="4603"></path><path d="M345.486554 478.037724m-9.795511 0a9.795511 9.795511 0 1 0 19.591021 0 9.795511 9.795511 0 1 0-19.591021 0Z" fill="#404041" p-id="4604"></path><path d="M620.476555 338.353144h-41.791928v9.285616h41.791928c19.078055 0 32.598461 7.474363 40.185451 22.214216 6.081879 11.814613 6.241605 24.123762 6.242629 24.213865v213.568144c0 19.078055-7.474363 32.598461-22.214216 40.185451-11.814613 6.081879-24.123762 6.241605-24.21284 6.242629H489.504216v9.285616h130.972339s55.713696 0 55.713696-55.713696V394.066841s0-55.713696-55.713696-55.713697z" fill="#404041" p-id="4605"></path><path d="M325.449118 394.843969h19.679076v27.447294h-19.679076z" fill="#F26E3F" p-id="4606"></path><path d="M345.128194 426.528101h-19.679076a4.235814 4.235814 0 0 1-4.235814-4.235814V394.843969a4.235814 4.235814 0 0 1 4.235814-4.235813h19.679076a4.235814 4.235814 0 0 1 4.235813 4.235813v27.448318a4.235814 4.235814 0 0 1-4.235813 4.235814z m-15.443263-8.471627h11.206425v-18.976691h-11.206425v18.976691z" fill="#404041" p-id="4607"></path><path d="M393.19961 528.613563h23.251411v27.447294h-23.251411z" fill="#F26E3F" p-id="4608"></path><path d="M416.451021 560.296671h-23.250387a4.235814 4.235814 0 0 1-4.235814-4.235814v-27.448318a4.235814 4.235814 0 0 1 4.235814-4.235813h23.250387a4.235814 4.235814 0 0 1 4.235814 4.235813v27.448318a4.23479 4.23479 0 0 1-4.235814 4.235814z m-19.014574-8.471627h14.778761v-18.976691h-14.778761v18.976691z" fill="#404041" p-id="4609"></path><path d="M434.759115 528.613563h23.251412v27.447294h-23.251412z" fill="#F26E3F" p-id="4610"></path><path d="M458.011551 560.296671h-23.252436a4.235814 4.235814 0 0 1-4.235814-4.235814v-27.448318a4.235814 4.235814 0 0 1 4.235814-4.235813h23.252436a4.235814 4.235814 0 0 1 4.235813 4.235813v27.448318a4.23479 4.23479 0 0 1-4.235813 4.235814z m-19.016622-8.471627h14.780808v-18.976691h-14.780808v18.976691z" fill="#404041" p-id="4611"></path><path d="M476.319644 528.613563h23.251412v27.447294h-23.251412z" fill="#F26E3F" p-id="4612"></path><path d="M499.570032 560.296671h-23.250388a4.235814 4.235814 0 0 1-4.235813-4.235814v-27.448318a4.235814 4.235814 0 0 1 4.235813-4.235813h23.250388a4.235814 4.235814 0 0 1 4.235814 4.235813v27.448318a4.23479 4.23479 0 0 1-4.235814 4.235814z m-19.014574-8.471627h14.778761v-18.976691h-14.778761v18.976691z" fill="#404041" p-id="4613"></path><path d="M517.87915 528.613563h23.251411v27.447294h-23.251411z" fill="#F26E3F" p-id="4614"></path><path d="M541.130561 560.296671h-23.252435a4.235814 4.235814 0 0 1-4.235814-4.235814v-27.448318a4.235814 4.235814 0 0 1 4.235814-4.235813h23.252435a4.235814 4.235814 0 0 1 4.235814 4.235813v27.448318a4.233766 4.233766 0 0 1-4.235814 4.235814z m-19.016622-8.471627h14.780809v-18.976691h-14.780809v18.976691z" fill="#404041" p-id="4615"></path><path d="M559.438655 528.613563h23.251412v27.447294h-23.251412z" fill="#F26E3F" p-id="4616"></path><path d="M582.689043 560.296671h-23.250388a4.235814 4.235814 0 0 1-4.235814-4.235814v-27.448318a4.235814 4.235814 0 0 1 4.235814-4.235813h23.250388a4.235814 4.235814 0 0 1 4.235813 4.235813v27.448318a4.233766 4.233766 0 0 1-4.235813 4.235814z m-19.014575-8.471627h14.778761v-18.976691h-14.778761v18.976691z" fill="#404041" p-id="4617"></path><path d="M600.99816 528.613563h23.251412v27.447294h-23.251412z" fill="#F2C928" p-id="4618"></path><path d="M624.249572 560.296671h-23.252436a4.235814 4.235814 0 0 1-4.235813-4.235814v-27.448318a4.235814 4.235814 0 0 1 4.235813-4.235813h23.252436a4.235814 4.235814 0 0 1 4.235814 4.235813v27.448318a4.233766 4.233766 0 0 1-4.235814 4.235814z m-19.016622-8.471627h14.780808v-18.976691h-14.780808v18.976691z" fill="#404041" p-id="4619"></path><path d="M393.19961 576.883613h23.251411V604.330907h-23.251411z" fill="#F26E3F" p-id="4620"></path><path d="M416.451021 608.565697h-23.250387a4.235814 4.235814 0 0 1-4.235814-4.235814v-27.448318a4.235814 4.235814 0 0 1 4.235814-4.235813h23.250387a4.235814 4.235814 0 0 1 4.235814 4.235813v27.448318a4.23479 4.23479 0 0 1-4.235814 4.235814z m-19.014574-8.471628h14.778761v-18.97669h-14.778761v18.97669z" fill="#404041" p-id="4621"></path><path d="M434.759115 576.883613h23.251412V604.330907h-23.251412z" fill="#F26E3F" p-id="4622"></path><path d="M458.011551 608.565697h-23.252436a4.235814 4.235814 0 0 1-4.235814-4.235814v-27.448318a4.235814 4.235814 0 0 1 4.235814-4.235813h23.252436a4.235814 4.235814 0 0 1 4.235813 4.235813v27.448318a4.23479 4.23479 0 0 1-4.235813 4.235814z m-19.016622-8.471628h14.780808v-18.97669h-14.780808v18.97669z" fill="#404041" p-id="4623"></path><path d="M476.319644 576.883613h23.251412V604.330907h-23.251412z" fill="#F26E3F" p-id="4624"></path><path d="M499.570032 608.565697h-23.250388a4.235814 4.235814 0 0 1-4.235813-4.235814v-27.448318a4.235814 4.235814 0 0 1 4.235813-4.235813h23.250388a4.235814 4.235814 0 0 1 4.235814 4.235813v27.448318a4.23479 4.23479 0 0 1-4.235814 4.235814z m-19.014574-8.471628h14.778761v-18.97669h-14.778761v18.97669z" fill="#404041" p-id="4625"></path><path d="M517.87915 576.883613h23.251411V604.330907h-23.251411z" fill="#F26E3F" p-id="4626"></path><path d="M541.130561 608.565697h-23.252435a4.235814 4.235814 0 0 1-4.235814-4.235814v-27.448318a4.235814 4.235814 0 0 1 4.235814-4.235813h23.252435a4.235814 4.235814 0 0 1 4.235814 4.235813v27.448318a4.233766 4.233766 0 0 1-4.235814 4.235814z m-19.016622-8.471628h14.780809v-18.97669h-14.780809v18.97669z" fill="#404041" p-id="4627"></path><path d="M559.438655 576.883613h23.251412V604.330907h-23.251412z" fill="#F26E3F" p-id="4628"></path><path d="M582.689043 608.565697h-23.250388a4.235814 4.235814 0 0 1-4.235814-4.235814v-27.448318a4.235814 4.235814 0 0 1 4.235814-4.235813h23.250388a4.235814 4.235814 0 0 1 4.235813 4.235813v27.448318a4.233766 4.233766 0 0 1-4.235813 4.235814z m-19.014575-8.471628h14.778761v-18.97669h-14.778761v18.97669z" fill="#404041" p-id="4629"></path><path d="M600.99816 576.883613h23.251412V604.330907h-23.251412z" fill="#F26E3F" p-id="4630"></path><path d="M624.249572 608.565697h-23.252436a4.235814 4.235814 0 0 1-4.235813-4.235814v-27.448318a4.235814 4.235814 0 0 1 4.235813-4.235813h23.252436a4.235814 4.235814 0 0 1 4.235814 4.235813v27.448318a4.233766 4.233766 0 0 1-4.235814 4.235814z m-19.016622-8.471628h14.780808v-18.97669h-14.780808v18.97669z" fill="#404041" p-id="4631"></path><path d="M325.449118 550.518566h19.679076v27.447294h-19.679076z" fill="#F2C928" p-id="4632"></path><path d="M345.128194 582.202697h-19.679076a4.235814 4.235814 0 0 1-4.235814-4.235813v-27.448318a4.235814 4.235814 0 0 1 4.235814-4.235814h19.679076a4.235814 4.235814 0 0 1 4.235813 4.235814v27.448318a4.235814 4.235814 0 0 1-4.235813 4.235813z m-15.443263-8.471627h11.206425V554.75438h-11.206425v18.97669z" fill="#404041" p-id="4633"></path><path d="M672.212456 550.518566h19.679076v27.447294h-19.679076z" fill="#F26E3F" p-id="4634"></path><path d="M691.892556 582.202697h-19.681124a4.235814 4.235814 0 0 1-4.235813-4.235813v-27.448318a4.235814 4.235814 0 0 1 4.235813-4.235814h19.681124a4.235814 4.235814 0 0 1 4.235814 4.235814v27.448318a4.235814 4.235814 0 0 1-4.235814 4.235813z m-15.44531-8.471627h11.209496V554.75438h-11.209496v18.97669z" fill="#404041" p-id="4635"></path><path d="M672.212456 484.283424h19.679076v27.447294h-19.679076z" fill="#33B88C" p-id="4636"></path><path d="M691.892556 516.404755h-19.681124a4.676084 4.676084 0 0 1-4.676084-4.676085v-27.444222a4.676084 4.676084 0 0 1 4.676084-4.676084h19.681124a4.676084 4.676084 0 0 1 4.676084 4.676084v27.444222a4.676084 4.676084 0 0 1-4.676084 4.676085z m-15.005039-9.351145h10.328955v-18.092054h-10.328955v18.092054z" fill="#404041" p-id="4637"></path><path d="M672.212456 413.502232h19.679076v27.447294h-19.679076z" fill="#F2C928" p-id="4638"></path><path d="M691.892556 445.184315h-19.681124a4.235814 4.235814 0 0 1-4.235813-4.235813v-27.448318a4.235814 4.235814 0 0 1 4.235813-4.235814h19.681124a4.235814 4.235814 0 0 1 4.235814 4.235814v27.448318a4.235814 4.235814 0 0 1-4.235814 4.235813z m-15.44531-8.471627h11.209496v-18.97669h-11.209496v18.97669z" fill="#404041" p-id="4639"></path><path d="M373.40893 647.82146c-14.740877-7.58699-22.214216-21.107396-22.214216-40.185451v-93.957861H341.909098v93.957861c0 55.713696 55.713696 55.713696 55.713696 55.713696h26.079383v-9.285616h-26.045595c-0.12389-0.001024-12.432016-0.161774-24.247652-6.242629zM397.622794 338.353144c-55.713696 0-55.713696 55.713696-55.713696 55.713697v55.972739h9.285616v-55.972739c0-0.117747 0.162798-12.062393 5.983586-23.70397 7.538868-15.078759 21.146304-22.724111 40.444494-22.724111h96.211433v-9.285616h-96.211433z" fill="#404041" p-id="4640"></path><path d="M366.990193 383.374406H352.270818c-2.510567 0-4.545027-2.036508-4.545027-4.548099s2.03446-4.548099 4.545027-4.548098h14.719375c2.510567 0 4.545027 2.036508 4.545027 4.548098s-2.033436 4.548099-4.545027 4.548099zM368.28848 437.489817h-21.211833c-2.510567 0-4.545027-2.036508-4.545027-4.548098s2.03446-4.548099 4.545027-4.548099h21.211833c2.510567 0 4.545027 2.036508 4.545027 4.548099s-2.03446 4.548099-4.545027 4.548098zM357.466012 525.802998h-10.389365a4.546051 4.546051 0 0 1-4.545027-4.548099 4.547075 4.547075 0 0 1 4.545027-4.548098h10.389365a4.546051 4.546051 0 0 1 4.545027 4.548098 4.546051 4.546051 0 0 1-4.545027 4.548099zM359.197402 614.117203h-10.389365c-2.510567 0-4.545027-2.036508-4.545026-4.548099s2.03446-4.548099 4.545026-4.548098h10.389365c2.510567 0 4.545027 2.036508 4.545027 4.548098s-2.033436 4.548099-4.545027 4.548099zM453.13888 685.978594H401.62209c-2.510567 0-4.545027-2.036508-4.545027-4.548098s2.03446-4.548099 4.545027-4.548099h51.51679c2.510567 0 4.545027 2.036508 4.545027 4.548099s-2.033436 4.548099-4.545027 4.548098zM564.831459 684.680308h-47.188827a4.547075 4.547075 0 0 1-4.546051-4.548099 4.547075 4.547075 0 0 1 4.546051-4.548098h47.188827a4.546051 4.546051 0 0 1 4.545027 4.548098 4.546051 4.546051 0 0 1-4.545027 4.548099zM589.075016 732.30019h-44.590206c-2.510567 0-4.545027-2.036508-4.545027-4.548098S541.974243 723.203993 544.48481 723.203993h44.590206c2.510567 0 4.545027 2.036508 4.545027 4.548099s-2.03446 4.548099-4.545027 4.548098zM433.226359 322.765514h-33.767738c-2.510567 0-4.545027-2.036508-4.545027-4.548098s2.03446-4.548099 4.545027-4.548099h33.767738c2.510567 0 4.545027 2.036508 4.545027 4.548099s-2.03446 4.548099-4.545027 4.548098zM613.749628 315.83893h-51.082663c-2.510567 0-4.545027-2.036508-4.545027-4.548099s2.03446-4.548099 4.545027-4.548098h51.082663c2.510567 0 4.545027 2.036508 4.545027 4.548098s-2.03446 4.548099-4.545027 4.548099zM462.229958 277.310125h-35.066024a4.546051 4.546051 0 0 1-4.545027-4.548098 4.547075 4.547075 0 0 1 4.545027-4.548099h35.066024a4.546051 4.546051 0 0 1 4.545027 4.548099 4.546051 4.546051 0 0 1-4.545027 4.548098zM547.514486 276.874974h-23.810453a4.546051 4.546051 0 0 1-4.545027-4.548099 4.547075 4.547075 0 0 1 4.545027-4.548098h23.810453a4.546051 4.546051 0 0 1 4.545027 4.548098 4.547075 4.547075 0 0 1-4.545027 4.548099zM669.596429 421.903211h-19.048362c-2.510567 0-4.545027-2.036508-4.545027-4.548099s2.03446-4.548099 4.545027-4.548098h19.048362c2.510567 0 4.545027 2.036508 4.545027 4.548098s-2.03446 4.548099-4.545027 4.548099zM669.162302 494.631833h-32.467404a4.546051 4.546051 0 0 1-4.545027-4.548098 4.547075 4.547075 0 0 1 4.545027-4.548099h32.467404a4.546051 4.546051 0 0 1 4.545027 4.548099 4.546051 4.546051 0 0 1-4.545027 4.548098zM668.731246 580.780521h-14.287296a4.546051 4.546051 0 0 1-4.545027-4.548099 4.547075 4.547075 0 0 1 4.545027-4.548099h14.287296a4.546051 4.546051 0 0 1 4.545027 4.548099 4.546051 4.546051 0 0 1-4.545027 4.548099z" fill="#404041" p-id="4641"></path></svg>