
<svg xmlns="http://www.w3.org/2000/svg" version="1.1" xmlns:xlink="http://www.w3.org/1999/xlink" preserveAspectRatio="none" x="0px" y="0px" width="1024px" height="1024px" viewBox="0 0 1024 1024">
<defs>
<g id="Layer0_0_MEMBER_0_MEMBER_0_FILL">
<path fill="#FFF67A" stroke="none" d="
M 164.75 134.8
L 164.1 134.95
Q 162.7 135.3 161.15 135.95
L 157.9 137.65
Q 159.9 137.75 161.75 137 163.75 136.25 164.75 134.8 Z"/>
</g>

<g id="Layer0_0_MEMBER_0_MEMBER_1_FILL">
<path fill="#FDA639" stroke="none" d="
M 162.65 139.85
Q 166.65 138.05 168.5 134.25
L 167.15 134.35
Q 165.95 134.5 164.75 134.8 163.75 136.25 161.75 137 159.9 137.75 157.9 137.65
L 157.55 137.9
Q 156.1 138.9 154.8 140.05 158.45 141.75 162.65 139.85 Z"/>
</g>

<g id="Layer0_0_MEMBER_0_MEMBER_2_FILL">
<path fill="#9D713F" stroke="none" d="
M 163 142
Q 168.5 139.4 170.85 134.2
L 168.5 134.25
Q 166.65 138.05 162.65 139.85 158.45 141.75 154.8 140.05 153.8 140.9 152.55 142.45 157.35 144.6 163 142 Z"/>
</g>

<g id="Layer0_0_MEMBER_0_MEMBER_3_FILL">
<path fill="#B55F17" stroke="none" d="
M 170.85 134.2
Q 168.5 139.4 163 142 157.35 144.6 152.55 142.45
L 151.6 143.75
Q 155.05 146.3 159.95 146.1 164.45 145.85 167.95 143.5 173.05 139.25 174.7 134.7
L 170.85 134.2 Z"/>
</g>

<g id="Layer0_0_MEMBER_0_MEMBER_4_FILL">
<path fill="#FDA639" stroke="none" d="
M 164.95 146.9
Q 172.75 143 175.6 134.95
L 174.7 134.7
Q 173.05 139.25 167.95 143.5 164.45 145.85 159.95 146.1 155.05 146.3 151.6 143.75
L 151.1 144.4 149.25 148
Q 157.1 150.8 164.95 146.9 Z"/>
</g>

<g id="Layer0_0_MEMBER_0_MEMBER_5_FILL">
<path fill="#FFF67A" stroke="none" d="
M 175.6 134.95
Q 172.75 143 164.95 146.9 157.1 150.8 149.25 148
L 148.5 150.15 148.3 151.05
Q 157.55 153.65 166.75 149.3 176.05 144.85 178.95 136.15 177.3 135.4 175.8 135
L 175.6 134.95 Z"/>
</g>

<g id="Layer0_0_MEMBER_0_MEMBER_6_FILL">
<path fill="#FDA639" stroke="none" d="
M 179.15 136.2
L 178.95 136.15
Q 176.05 144.85 166.75 149.3 157.55 153.65 148.3 151.05
L 148.1 151.65 147.75 153.75
Q 157.25 156.25 166.9 151.3 175.85 146.7 181.7 137.6 180.7 137 179.15 136.2 Z"/>
</g>

<g id="Layer0_0_MEMBER_0_MEMBER_7_FILL">
<path fill="#9D713F" stroke="none" d="
M 184.3 139.55
L 181.7 137.6
Q 175.85 146.7 166.9 151.3 157.25 156.25 147.75 153.75
L 147.6 155.25 147.65 157.7
Q 157.8 160.25 168.5 154.75 178.9 149.45 184.3 139.55 Z"/>
</g>

<g id="Layer0_0_MEMBER_0_MEMBER_8_FILL">
<path fill="#B55F17" stroke="none" d="
M 185.9 141
L 184.3 139.55
Q 178.9 149.45 168.5 154.75 157.8 160.25 147.65 157.7
L 147.7 158.6 148.15 161.45
Q 159 163.2 170 157.1 180.6 151.25 186.05 141.2
L 185.9 141 Z"/>
</g>

<g id="Layer0_0_MEMBER_0_MEMBER_9_FILL">
<path fill="#FFF67A" stroke="none" d="
M 188 143.55
Q 187 142.2 186.05 141.2 180.6 151.25 170 157.1 159 163.2 148.15 161.45
L 148.4 162.35
Q 148.65 163.5 149.25 164.9
L 149.3 165.05
Q 157.65 166.7 166 163.4 173.45 160.45 180 153.9 182.95 150.5 184.1 149.05 186.5 146.1 188 143.55 Z"/>
</g>

<g id="Layer0_0_MEMBER_0_MEMBER_10_FILL">
<path fill="#FDA639" stroke="none" d="
M 188.35 144.05
L 188 143.55
Q 186.5 146.1 184.1 149.05 182.95 150.5 180 153.9 173.45 160.45 166 163.4 157.65 166.7 149.3 165.05
L 150.15 166.8
Q 150.8 168.05 151.5 169 163.05 170.7 173.85 164.85 183.75 159.55 190.9 149.2 190.5 148 189.75 146.45 189.25 145.45 188.35 144.05 Z"/>
</g>

<g id="Layer0_0_MEMBER_0_MEMBER_11_FILL">
<path fill="#FDA639" stroke="none" d="
M 192.05 158.55
L 192.15 156.25
Q 192.15 154.45 191.7 152
L 191.45 150.95
Q 187.15 160.9 176 166.9 165.3 172.6 153.85 171.9
L 155 173.05 156.85 174.5
Q 166.8 174.85 176.2 170.45 184.9 166.3 192.05 158.55 Z"/>
</g>

<g id="Layer0_0_MEMBER_0_MEMBER_12_FILL">
<path fill="#FFF67A" stroke="none" d="
M 192.05 158.55
Q 184.9 166.3 176.2 170.45 166.8 174.85 156.85 174.5
L 157.75 175.15
Q 159.4 176.2 160.65 176.75
L 161.2 176.95
Q 170.1 176.25 178 172.55 186.55 168.6 191.35 162.3 191.8 160.85 192.05 158.55 Z"/>
</g>

<g id="Layer0_0_MEMBER_0_MEMBER_13_FILL">
<path fill="#FDA639" stroke="none" d="
M 170.25 178.75
Q 173.8 178.7 177.05 177.55 181.95 175.95 185.65 172.2 182.95 174 178.15 175.8 171.05 178.4 170.25 178.75 Z"/>
</g>

<g id="Layer0_0_MEMBER_0_MEMBER_14_FILL">
<path fill="#9D713F" stroke="none" d="
M 187.3 170.3
Q 188.15 169.25 189.1 167.7 177.55 176.4 163.5 177.8 164.65 178.15 166 178.4 167.75 178.75 169.85 178.75
L 170.25 178.75
Q 171.05 178.4 178.15 175.8 182.95 174 185.65 172.2 186.8 170.9 187.3 170.3 Z"/>
</g>

<g id="Layer0_0_MEMBER_0_MEMBER_15_FILL">
<path fill="#FDA639" stroke="none" d="
M 191.35 162.3
Q 186.55 168.6 178 172.55 170.1 176.25 161.2 176.95 162.05 177.35 163.5 177.8 177.55 176.4 189.1 167.7 190.5 165.25 191.25 162.7
L 191.35 162.3 Z"/>
</g>

<g id="Layer0_0_MEMBER_0_MEMBER_16_FILL">
<path fill="#9D713F" stroke="none" d="
M 176 166.9
Q 187.15 160.9 191.45 150.95
L 190.9 149.2
Q 183.75 159.55 173.85 164.85 163.05 170.7 151.5 169
L 151.8 169.5 153.85 171.9
Q 165.3 172.6 176 166.9 Z"/>
</g>

<g id="Layer0_0_MEMBER_0_MEMBER_17_FILL">
<path fill="#000000" fill-opacity="0.2" stroke="none" d="
M 187.6 143
Q 183.15 137.15 176.1 135.1 177 138.05 177 141.35 177 150.6 170.5 157.1 164 163.6 154.75 163.6 151.45 163.6 148.45 162.7 150.55 169.75 156.4 174.2 162.35 178.75 169.85 178.75 179.1 178.75 185.6 172.2 192.15 165.7 192.15 156.45 192.15 148.95 187.6 143 Z"/>
</g>

<g id="Layer0_0_MEMBER_0_MEMBER_18_FILL">
<path fill="#FDA639" stroke="none" d="
M 207.95 138.2
Q 213.3 129.65 210.55 125.7 207.65 121.65 197.25 124.15 187.05 126.55 173.55 134.3 175.85 134.7 177.85 135.55 187.65 130.45 194.65 129 201.85 127.5 203.9 130.4 205.85 133.2 202.35 139.2 198.95 145.05 191.35 152.3 184.65 158.7 175.9 164.9 167.1 171.1 158.85 175.25 149.5 180 142.8 181.3 135.95 182.6 134 179.8 131.95 176.9 135.75 170.6 139.5 164.45 147.55 156.95 147.4 154.8 147.8 152.45 136 162.6 130.3 171.45 124.5 180.4 127.35 184.45 130.15 188.4 140 186.2 149.65 184.1 162.6 176.9 170.6 172.45 177.65 167.4 185.25 162.05 191.65 156.4 202.7 146.6 207.95 138.2 Z"/>
</g>

<g id="Layer0_0_MEMBER_0_MEMBER_19_FILL">
<path fill="#FFF67A" stroke="none" d="
M 194.65 129
Q 187.65 130.45 177.85 135.55 178.95 135.95 180.15 136.6
L 180.95 137.1
Q 187.6 134.05 192.1 133.3 196.75 132.55 198.1 134.5 199.45 136.4 197.35 140.35 195.3 144.2 190.55 149.15 183.95 156.05 174.4 162.8 164.9 169.5 156.1 173.5 149.85 176.35 145.55 176.95 141.15 177.6 139.8 175.7 138.45 173.75 140.7 169.6 142.85 165.6 147.95 160.4
L 147.8 159.5
Q 147.55 158.1 147.55 156.95 139.5 164.45 135.75 170.6 131.95 176.9 134 179.8 135.95 182.6 142.8 181.3 149.5 180 158.85 175.25 167.1 171.1 175.9 164.9 184.65 158.7 191.35 152.3 198.95 145.05 202.35 139.2 205.85 133.2 203.9 130.4 201.85 127.5 194.65 129 Z"/>
</g>

<g id="Layer0_0_MEMBER_0_MEMBER_20_FILL">
<path fill="#B55F17" stroke="none" d="
M 192.1 133.3
Q 187.6 134.05 180.95 137.1
L 182.3 137.95
Q 183.1 138.5 184 139.3 191.7 136.05 193.1 138.05 194.45 140 189.15 145.85 183 152.7 172.45 160.1 161.85 167.65 153.45 171.05 146.25 174.1 144.8 172.15 143.45 170.1 149 164 148.55 162.75 148.35 161.95
L 147.95 160.4
Q 142.85 165.6 140.7 169.6 138.45 173.75 139.8 175.7 141.15 177.6 145.55 176.95 149.85 176.35 156.1 173.5 164.9 169.5 174.4 162.8 183.95 156.05 190.55 149.15 195.3 144.2 197.35 140.35 199.45 136.4 198.1 134.5 196.75 132.55 192.1 133.3 Z"/>
</g>

<g id="Layer0_0_MEMBER_1_FILL">
<path fill="#FFFFFF" fill-opacity="0.6980392156862745" stroke="none" d="
M 2.9 0.25
Q 1.75 0.85 0.9 2.1 0.1 3.35 0 4.6 -0.05 5.85 0.65 6.35 1.4 6.85 2.5 6.3 3.65 5.75 4.45 4.45 5.3 3.2 5.4 1.95 5.45 0.7 4.7 0.2 4 -0.3 2.9 0.25 Z"/>
</g>

<g id="Layer0_0_MEMBER_2_FILL">
<path fill="#FDB12D" stroke="none" d="
M 202.35 157.8
Q 199.7 160 199.7 161.95 199.7 162.5 199.5 164.25 199.35 165.85 199.7 166.35 200.3 167.3 202.4 167.45 202.45 167.45 205.75 167.45 208 167.45 209.25 166.25 210.5 165 210.5 162.75 210.5 162.55 210.95 160.35 211.25 158.9 210.65 158.35 210 157.7 208.5 157.65 206.7 157.65 205.95 157.65 204.65 157.5 204.05 157.45 202.95 157.35 202.35 157.8 Z"/>
</g>

<g id="Layer0_0_MEMBER_3_FILL">
<path fill="#FECF32" stroke="none" d="
M 202.05 158.5
Q 201.35 159.05 201.15 159.4 200.85 159.85 201.3 160.15 201.75 160.5 202.35 160.4 203.4 160.25 203.65 159.15 203.8 158.6 203.5 158.2 203.2 157.75 202.7 158.05 202.4 158.25 202.05 158.5 Z"/>
</g>

<g id="Layer0_0_MEMBER_4_FILL">
<path fill="#FFF99A" fill-opacity="0.4980392156862745" stroke="none" d="
M 0.8 2.45
Q 0.4 2.1 0.6 1.7 1 1.1 2.2 0.35
L 2.45 0.25
Q 2.2 -0.15 1.65 0.1 0.45 0.85 0.1 1.45 -0.1 1.8 0.15 2.1 0.35 2.35 0.8 2.45 Z"/>
</g>

<g id="Layer0_0_MEMBER_5_FILL">
<path fill="#FECF32" stroke="none" d="
M 204.05 159.05
Q 204.2 159.25 204.45 159.65 204.65 159.9 205.1 159.9 205.7 159.9 206.4 159.65 207.1 159.35 207.35 159 207.95 158 207.35 157.9 207 157.8 206.5 157.9 205.9 158.05 205.7 158.05 204.45 157.8 204.1 157.9 203.85 158 203.8 158.35 203.8 158.75 204.05 159.05 Z"/>
</g>

<g id="Layer0_0_MEMBER_6_FILL">
<path fill="#FFF99A" fill-opacity="0.4980392156862745" stroke="none" d="
M 3.55 0.05
Q 3.2 0 2.7 0.1 2.1 0.2 1.9 0.2 1.4 0.2 0.9 0.1 0.45 0 0.3 0.05 0.05 0.15 0 0.55 0 0.95 0.25 1.2 0.4 1.4 0.6 1.7 0.8 2 1.1 2.05
L 0.8 1.6
Q 0.55 1.35 0.55 0.95 0.6 0.55 0.85 0.45 1 0.4 1.45 0.5 1.95 0.6 2.45 0.6 2.65 0.6 3.15 0.5 3.6 0.4 3.85 0.45 3.95 0.15 3.55 0.05 Z"/>
</g>

<g id="Layer0_0_MEMBER_7_FILL">
<path fill="#FECF32" stroke="none" d="
M 208 158.7
Q 207.95 159.35 207.55 159.75 207.15 160.15 206.95 160.35 206.6 160.65 206.55 161.2 206.45 162.2 208.8 162.4 209.5 162.45 209.7 162.15
L 209.85 161.5
Q 210.3 160.85 210.55 160.1 210.95 159.15 210 158.35 209.45 157.9 208.65 158.05 208.35 158.15 208.15 158.45
L 208 158.7 Z"/>
</g>

<g id="Layer0_0_MEMBER_8_FILL">
<path fill="#FFF99A" fill-opacity="0.4980392156862745" stroke="none" d="
M 3.55 0.4
L 3.45 0.35
Q 2.95 -0.15 2.1 0.05 1.65 0.15 1.45 0.7 1.4 1.35 1 1.75 0.8 1.95 0.4 2.3 0.05 2.65 0 3.2 -0.05 3.9 1.05 4.2 0.8 3.95 0.85 3.6 0.9 3.05 1.2 2.7 1.6 2.35 1.8 2.15 2.2 1.75 2.3 1.1 2.35 0.95 2.45 0.8 2.6 0.5 2.9 0.45
L 3.55 0.4 Z"/>
</g>

<g id="Layer0_0_MEMBER_9_FILL">
<path fill="#FECF32" stroke="none" d="
M 201.9 160.95
Q 201.5 161.1 201.65 161.8 201.75 162.2 202 163.05 202.05 163.6 202.9 164.2 203.6 164.8 204.2 164.9 204.8 165.05 206.2 164.5 207.65 164 207.6 163.5 207.55 162.85 207.1 162.55 206.4 161.95 206.25 161.55 206.15 161.25 206.3 161 206.5 160.5 206.5 160.45 206.55 160.2 206.45 160.1
L 206.1 160
Q 204.55 160.35 204.05 160.2 203.55 160.05 202.95 160.4 202.25 160.85 201.9 160.95 Z"/>
</g>

<g id="Layer0_0_MEMBER_10_FILL">
<path fill="#FFF99A" fill-opacity="0.4980392156862745" stroke="none" d="
M 4.85 0.1
L 4.5 0
Q 2.95 0.35 2.45 0.2 1.95 0.05 1.35 0.4 0.65 0.85 0.3 0.95 -0.1 1.1 0.05 1.8 0.15 2.2 0.4 3.05 0.45 3.6 1.3 4.2 2 4.8 2.6 4.9
L 2.75 4.9
Q 1.9 4.25 1.85 3.75 1.6 2.9 1.5 2.5 1.35 1.8 1.75 1.65 2.1 1.5 2.8 1.05 3.4 0.7 3.9 0.85 4.25 0.95 4.75 0.85
L 4.9 0.45
Q 4.95 0.2 4.85 0.1 Z"/>
</g>

<g id="Layer0_0_MEMBER_11_FILL">
<path fill="#FECF32" stroke="none" d="
M 210.25 163.75
L 210.25 163
Q 210.25 162.6 209.95 162.55 209.7 162.55 209.55 162.6 209.4 162.75 209.15 162.75 208.8 162.8 208.35 162.7
L 208 162.6
Q 207.95 162.6 207.9 162.65 207.75 162.75 207.8 162.95 207.9 163.55 207.75 164.1 207.7 164.3 207.55 164.6 207.45 164.9 207.9 165.15 209 165.8 209.6 165.3 210.4 164.65 210.25 163.75 Z"/>
</g>

<g id="Layer0_0_MEMBER_12_FILL">
<path fill="#FFF99A" fill-opacity="0.4980392156862745" stroke="none" d="
M 2.45 0
Q 2.2 0 2.05 0.05 1.9 0.2 1.65 0.2 1.05 0.25 0.5 0.05 0.25 0.1 0.3 0.4 0.4 1 0.25 1.55 0.2 1.75 0.05 2.05 -0.05 2.35 0.4 2.6 0.6 2.2 0.65 2 0.8 1.45 0.7 0.85 0.65 0.5 0.9 0.5 1.45 0.65 2.05 0.6 2.55 0.55 2.75 0.4 2.75 0 2.45 0 Z"/>
</g>

<g id="Layer0_0_MEMBER_13_FILL">
<path fill="#FECF32" stroke="none" d="
M 208.5 166.5
Q 208.95 166.15 208.5 165.85 207.6 165.1 207 164.85 206.45 164.65 206 164.8 205.5 165.1 205 165.25 204.2 165.45 204 165.5 203.65 165.6 203.6 165.8 203.55 166.1 204.05 166.55 204.65 167.1 205.25 167.15 205.9 167.2 207.05 167 208.2 166.75 208.5 166.5 Z"/>
</g>

<g id="Layer0_0_MEMBER_14_FILL">
<path fill="#FECF32" stroke="none" d="
M 201.25 160.45
Q 201.2 160.3 200.9 160.25 200.6 160.2 200.4 160.5
L 200.25 160.85 199.95 162.2
Q 199.95 163.45 199.8 164 199.6 164.95 199.95 165.45 200.15 165.75 201.1 165.7 201.95 165.65 202.65 165.35 203.2 165.15 202.95 164.8 202.55 164.45 202.5 164.3 201.95 163.9 201.75 163.45 201.6 163.1 201.4 161.8
L 201.3 160.9
Q 201.3 160.6 201.25 160.45 Z"/>
</g>

<g id="Layer0_0_MEMBER_15_FILL">
<path fill="#FFF99A" fill-opacity="0.4980392156862745" stroke="none" d="
M 0.55 0.6
Q 0.2 1.55 0.25 1.95 0.25 3.2 0.1 3.75 -0.1 4.7 0.25 5.2 0.45 5.5 1.4 5.45 2.25 5.4 2.95 5.1
L 3.15 5
Q 1.45 5.4 1.1 4.9 0.75 4.4 0.95 3.45 1.1 2.9 1.1 1.7 1.05 1.25 1.4 0.3
L 1.5 0.1
Q 1.4 0 1.2 0 0.75 -0.1 0.55 0.6 Z"/>
</g>

<g id="Layer0_0_MEMBER_16_FILL">
<path fill="#FECF32" stroke="none" d="
M 200.05 166.2
Q 200.25 166.55 200.5 166.7 201.1 167.1 202.3 167.2 203.9 167.4 203.8 167 203.8 166.85 203.45 166.25 203.35 166.05 203.45 165.8 203.5 165.5 203.4 165.4 203.25 165.25 203.15 165.35 202.8 165.55 202.7 165.55 201.6 166.05 201.15 166
L 200.15 165.85
Q 199.9 165.8 200.05 166.2 Z"/>
</g>

<g id="Layer0_0_MEMBER_17_FILL">
<path fill="#FFF99A" fill-opacity="0.4980392156862745" stroke="none" d="
M 3.85 1.15
Q 3.8 0.85 3.65 0.7 3.35 0.95 2.2 0.8 0.85 0.55 0.45 0.3
L 0.15 0
Q -0.1 0 0.1 0.35 0.3 0.7 0.55 0.85 1.15 1.25 2.3 1.35 3.9 1.55 3.85 1.15 Z"/>
</g>

<g id="Layer0_0_MEMBER_18_FILL">
<path fill="#FFFFFF" fill-opacity="0.6980392156862745" stroke="none" d="
M 0.05 0.8
Q 0.25 1.1 0.7 0.7 1.15 0.3 0.95 0.1 0.8 -0.15 0.3 0.15 -0.2 0.55 0.05 0.8 Z"/>
</g>

<g id="Layer0_0_MEMBER_19_FILL">
<path fill="#FFFFFF" fill-opacity="0.6980392156862745" stroke="none" d="
M 0 0.45
Q 0.1 0.8 0.65 0.7 1.2 0.5 1.15 0.25 1.05 -0.1 0.5 0 -0.1 0.2 0 0.45 Z"/>
</g>

<g id="Layer0_0_MEMBER_20_FILL">
<path fill="#FFFFFF" fill-opacity="0.6980392156862745" stroke="none" d="
M 0.9 0.35
Q 1 0.1 0.5 0 0 0 0 0.2 -0.1 0.45 0.4 0.55 0.9 0.65 0.9 0.35 Z"/>
</g>

<g id="Layer0_0_MEMBER_21_FILL">
<path fill="#FFFFFF" fill-opacity="0.6980392156862745" stroke="none" d="
M 0.95 0.35
Q 0.95 0.1 0.5 0 0.1 0 0 0.2 0 0.45 0.45 0.55 0.95 0.65 0.95 0.35 Z"/>
</g>

<g id="Layer0_0_MEMBER_22_FILL">
<path fill="#FFFFFF" fill-opacity="0.6980392156862745" stroke="none" d="
M 0.7 0.7
Q 0.9 0.5 0.6 0.15 0.2 -0.15 0.05 0.05 -0.1 0.25 0.2 0.55 0.55 0.9 0.7 0.7 Z"/>
</g>

<g id="Layer0_0_MEMBER_23_FILL">
<path fill="#FFFFFF" fill-opacity="0.6980392156862745" stroke="none" d="
M 0.25 0.15
Q -0.1 0.4 0.05 0.65 0.25 0.85 0.6 0.55 0.95 0.3 0.8 0.05 0.6 -0.15 0.25 0.15 Z"/>
</g>

<g id="Layer0_0_MEMBER_24_FILL">
<path fill="#FFFFFF" fill-opacity="0.6980392156862745" stroke="none" d="
M 0.9 0.3
Q 0.9 0.1 0.45 0 0 0 0 0.25 -0.1 0.55 0.45 0.55 0.9 0.55 0.9 0.3 Z"/>
</g>

<g id="Layer0_0_MEMBER_25_FILL">
<path fill="#FFFFFF" fill-opacity="0.6980392156862745" stroke="none" d="
M 0.6 0.2
Q 0.6 0 0.3 0 0 0 0 0.15 0 0.35 0.3 0.35 0.6 0.35 0.6 0.2 Z"/>
</g>

<g id="Layer0_0_MEMBER_26_FILL">
<path fill="#FDB12D" stroke="none" d="
M 166.95 118.15
Q 163.6 119.05 162.8 120.8 162.05 122.05 161.6 122.8 160.8 124.15 160.9 124.8 161.1 125.9 162.95 126.9 163.95 127.5 166 128.35 168.05 129.3 169.65 128.7 171.3 128.1 172.25 126.1 172.3 126 173.65 124.1 174.5 122.95 174.25 122.15 173.95 121.35 172.6 120.6 171 119.9 170.3 119.55 170.25 119.5 168.65 118.55 167.65 118 166.95 118.15 Z"/>
</g>

<g id="Layer0_0_MEMBER_27_FILL">
<path fill="#FECF32" stroke="none" d="
M 167.2 118.5
Q 165.8 118.7 165.2 119.1 164.75 119.35 165.05 119.85 165.3 120.35 165.85 120.5 166.25 120.65 166.8 120.45 167.3 120.3 167.55 119.9 167.9 119.45 167.85 119 167.8 118.5 167.2 118.5 Z"/>
</g>

<g id="Layer0_0_MEMBER_28_FILL">
<path fill="#FEE467" stroke="none" d="
M 0.45 1.75
Q 0.25 1.25 0.65 1 1.25 0.6 2.65 0.45
L 2.9 0.45
Q 2.8 0 2.25 0 0.85 0.15 0.25 0.55 -0.05 0.75 0 1.15 0.1 1.5 0.45 1.75 Z"/>
</g>

<g id="Layer0_0_MEMBER_29_FILL">
<path fill="#FECF32" stroke="none" d="
M 170.7 120
Q 170 119.85 169.9 119.8 168.85 119 168.5 118.95 168.25 118.9 168.05 119.25 167.85 119.65 167.95 120 168.05 120.25 168.1 120.7 168.2 121.05 168.6 121.25 169.15 121.5 169.85 121.55 170.6 121.6 170.95 121.35 171.95 120.75 171.45 120.35 171.15 120.15 170.7 120 Z"/>
</g>

<g id="Layer0_0_MEMBER_30_FILL">
<path fill="#FEE467" stroke="none" d="
M 3.5 1.35
Q 3.25 1.15 2.75 1.05 2.15 0.9 1.95 0.8 1.5 0.6 1.1 0.25 0.75 0.05 0.6 0 0.3 -0.05 0.1 0.3 -0.1 0.65 0 1 0.1 1.25 0.15 1.65 0.2 1.95 0.45 2.15
L 0.35 1.6
Q 0.25 1.25 0.45 0.9 0.65 0.55 0.9 0.6 1.05 0.65 1.4 0.85 1.85 1.2 2.3 1.4 2.7 1.6 3.65 1.85 3.8 1.65 3.5 1.35 Z"/>
</g>

<g id="Layer0_0_MEMBER_31_FILL">
<path fill="#FECF32" stroke="none" d="
M 171.7 121.35
Q 171.35 121.9 170.8 122.15 170.3 122.3 170.05 122.4 169.6 122.6 169.3 123.05 168.85 123.9 170.85 125.05 171.45 125.4 171.75 125.2 171.95 125.1 172.2 124.7 172.3 124.55 172.7 124.3 173.15 124 173.45 123.7 173.8 123.35 173.85 122.75 173.85 122.25 173.65 121.9 173.4 121.25 172.55 121.05 172.25 121 171.95 121.15
L 171.7 121.35 Z"/>
</g>

<g id="Layer0_0_MEMBER_32_FILL">
<path fill="#FEE467" stroke="none" d="
M 3.3 0.05
Q 3 0 2.75 0.15
L 2.5 0.35
Q 2.15 0.9 1.6 1.1 1.05 1.25 0.8 1.35 0.4 1.55 0.1 2 -0.2 2.65 0.65 3.35 0.5 3.05 0.7 2.75 1 2.3 1.4 2.1 1.65 2 2.2 1.8 2.75 1.6 3.1 1.05
L 3.35 0.85
Q 3.6 0.7 3.9 0.75
L 4.5 1 4.45 0.85
Q 4.15 0.15 3.3 0.05 Z"/>
</g>

<g id="Layer0_0_MEMBER_33_FILL">
<path fill="#FECF32" stroke="none" d="
M 166.4 120.75
Q 165.6 120.9 165.2 120.85 164.8 120.8 164.65 121.55 164.55 121.95 164.4 122.8 164.25 123.3 164.75 124.15 165.2 124.95 165.65 125.35 166.1 125.7 167.6 125.85 169.1 126 169.25 125.55 169.5 124.95 169.25 124.45 168.85 123.65 168.9 123.2 168.95 122.9 169.2 122.7 169.55 122.4 169.6 122.3 169.75 122.05 169.7 121.95
L 169.4 121.75
Q 169.3 121.65 168.5 121.45 167.7 121.25 167.5 121.05 167.1 120.7 166.4 120.75 Z"/>
</g>

<g id="Layer0_0_MEMBER_34_FILL">
<path fill="#FEE467" stroke="none" d="
M 5.2 1.55
Q 5.35 1.3 5.3 1.2
L 5 1
Q 4.9 0.9 4.1 0.7 3.3 0.5 3.1 0.3 2.7 -0.05 2 0 1.2 0.15 0.8 0.1 0.4 0.05 0.25 0.8 0.15 1.2 0 2.05 -0.15 2.55 0.35 3.4 0.8 4.2 1.25 4.6
L 1.4 4.7
Q 0.9 3.85 1.05 3.25 1.2 2.4 1.3 2 1.45 1.25 1.85 1.3 2.25 1.35 3.05 1.2 3.75 1.15 4.1 1.5 4.3 1.65 4.9 1.85
L 5.2 1.55 Z"/>
</g>

<g id="Layer0_0_MEMBER_35_FILL">
<path fill="#FECF32" stroke="none" d="
M 171 125.5
L 170.05 124.9
Q 170 124.9 169.9 124.9 169.75 124.95 169.7 125.15 169.5 125.85 169.15 126.15 168.85 126.35 168.75 126.5 168.6 126.75 168.9 127.15 169.6 128.15 170.35 128 171.45 127.7 171.6 126.9 171.85 126.4 171.95 126.2 172.1 125.85 171.85 125.65 171.6 125.5 171.45 125.55 171.25 125.6 171 125.5 Z"/>
</g>

<g id="Layer0_0_MEMBER_36_FILL">
<path fill="#FEE467" stroke="none" d="
M 3.15 0.75
Q 2.9 0.6 2.75 0.65 2.55 0.7 2.3 0.6 1.75 0.4 1.35 0 1.1 -0.05 1 0.25 0.8 0.95 0.45 1.25 0.35 1.4 0.05 1.6 -0.1 1.85 0.2 2.25
L 0.65 1.8
Q 1 1.5 1.2 0.8 1.3 0.5 1.55 0.55 1.95 0.95 2.5 1.15 2.75 1.25 2.95 1.25 3.1 1.2 3.25 1.3 3.4 0.95 3.15 0.75 Z"/>
</g>

<g id="Layer0_0_MEMBER_37_FILL">
<path fill="#FECF32" stroke="none" d="
M 168.15 126.5
Q 167.75 126.1 167.3 126.05 166.75 126.1 166.25 126 165.45 125.85 165.2 125.8 164.85 125.75 164.7 125.95 164.55 126.2 164.8 126.85 165.1 127.55 165.65 127.85 166.2 128.2 167.35 128.45 168.45 128.75 168.85 128.65 169.4 128.5 169.15 128.05 168.65 127.05 168.15 126.5 Z"/>
</g>

<g id="Layer0_0_MEMBER_38_FILL">
<path fill="#FECF32" stroke="none" d="
M 163.75 120
L 162.9 121.15
Q 162.55 122.1 162.05 122.7 161.4 123.45 161.55 124.05 161.6 124.4 162.5 124.75 163.25 125.05 164.05 125.15 164.6 125.2 164.55 124.75 164.35 124.2 164.35 124.05 164 123.5 164 123 164.05 122.4 164.4 121.4 164.6 120.85 164.7 120.5 164.85 120.2 164.85 120.1 164.85 119.9 164.6 119.75 164.4 119.6 164.05 119.8
L 163.75 120 Z"/>
</g>

<g id="Layer0_0_MEMBER_39_FILL">
<path fill="#FEE467" stroke="none" d="
M 3.35 0.3
Q 3.2 0.15 3.1 0.1 2.75 -0.15 2.25 0.35 1.55 1.1 1.4 1.5 1.05 2.45 0.55 3.05 -0.05 3.8 0.05 4.4 0.1 4.75 1 5.1 1.75 5.4 2.55 5.5
L 2.75 5.45
Q 1.05 5.15 0.95 4.5 0.85 3.9 1.45 3.15 1.95 2.55 2.3 1.6 2.45 1.2 3.15 0.45
L 3.35 0.3 Z"/>
</g>

<g id="Layer0_0_MEMBER_40_FILL">
<path fill="#FECF32" stroke="none" d="
M 164 125.3
Q 162.5 125.15 162.4 125.05
L 161.55 124.5
Q 161.3 124.35 161.35 124.8 161.35 125.15 161.5 125.45 161.9 126.05 162.9 126.65 164.3 127.45 164.4 127.1
L 164.4 126.25
Q 164.4 126.05 164.55 125.85 164.75 125.65 164.7 125.45 164.65 125.3 164.5 125.3 164.2 125.35 164 125.3 Z"/>
</g>

<g id="Layer0_0_MEMBER_41_FILL">
<path fill="#FEE467" stroke="none" d="
M 3.05 2.6
Q 3.1 2.5 3.1 2.15 2.55 2.25 1.75 1.6 0.75 1 0.35 0.4
L 0.2 0
Q 0 -0.1 0 0.3 0.05 0.7 0.2 0.95 0.45 1.45 1.6 2.15 1.9 2.4 2.4 2.6 3 2.85 3.05 2.6 Z"/>
</g>

<g id="Layer0_0_MEMBER_42_FILL">
<path fill="#FFFFFF" fill-opacity="0.6980392156862745" stroke="none" d="
M 0 0.45
Q 0.1 0.8 0.65 0.7 1.25 0.5 1.15 0.2 1.05 -0.1 0.5 0 -0.1 0.2 0 0.45 Z"/>
</g>

<g id="Layer0_0_MEMBER_43_FILL">
<path fill="#FFFFFF" fill-opacity="0.6980392156862745" stroke="none" d="
M 1.15 0.5
Q 1.25 0.2 0.65 0 0.1 -0.1 0 0.2 -0.1 0.5 0.5 0.7 1.05 0.8 1.15 0.5 Z"/>
</g>

<g id="Layer0_0_MEMBER_44_FILL">
<path fill="#FFFFFF" fill-opacity="0.6980392156862745" stroke="none" d="
M 0.85 0.6
Q 0.95 0.35 0.55 0.1 0.15 -0.1 0.05 0.1 -0.1 0.35 0.3 0.6 0.7 0.8 0.85 0.6 Z"/>
</g>

<g id="Layer0_0_MEMBER_45_FILL">
<path fill="#FFFFFF" fill-opacity="0.6980392156862745" stroke="none" d="
M 0.8 0.55
Q 0.95 0.4 0.55 0.1 0.2 -0.15 0 0.05 -0.1 0.3 0.25 0.55 0.7 0.85 0.8 0.55 Z"/>
</g>

<g id="Layer0_0_MEMBER_46_FILL">
<path fill="#FFFFFF" fill-opacity="0.6980392156862745" stroke="none" d="
M 0.45 0.9
Q 0.7 0.8 0.55 0.4 0.4 0 0.15 0.05 -0.1 0.15 0.05 0.55 0.2 1 0.45 0.9 Z"/>
</g>

<g id="Layer0_0_MEMBER_47_FILL">
<path fill="#FFFFFF" fill-opacity="0.6980392156862745" stroke="none" d="
M 0.95 0.2
Q 0.85 -0.1 0.4 0.05 0 0.15 0 0.4 0.1 0.65 0.55 0.55 0.95 0.45 0.95 0.2 Z"/>
</g>

<g id="Layer0_0_MEMBER_48_FILL">
<path fill="#FFFFFF" fill-opacity="0.6980392156862745" stroke="none" d="
M 0.85 0.55
Q 0.95 0.3 0.55 0.1 0.1 -0.1 0 0.1 -0.1 0.35 0.3 0.6 0.7 0.8 0.85 0.55 Z"/>
</g>

<g id="Layer0_0_MEMBER_49_FILL">
<path fill="#FFFFFF" fill-opacity="0.6980392156862745" stroke="none" d="
M 0.6 0.35
Q 0.6 0.1 0.4 0.05 0.1 -0.15 0 0.05 0 0.2 0.2 0.35 0.5 0.55 0.6 0.35 Z"/>
</g>
</defs>

<g transform="matrix( 10, 0, 0, 10, -1177.45,-1013.5) ">
<use xlink:href="#Layer0_0_MEMBER_0_MEMBER_0_FILL"/>
</g>

<g transform="matrix( 10, 0, 0, 10, -1177.45,-1013.5) ">
<use xlink:href="#Layer0_0_MEMBER_0_MEMBER_1_FILL"/>
</g>

<g transform="matrix( 10, 0, 0, 10, -1177.45,-1013.5) ">
<use xlink:href="#Layer0_0_MEMBER_0_MEMBER_2_FILL"/>
</g>

<g transform="matrix( 10, 0, 0, 10, -1177.45,-1013.5) ">
<use xlink:href="#Layer0_0_MEMBER_0_MEMBER_3_FILL"/>
</g>

<g transform="matrix( 10, 0, 0, 10, -1177.45,-1013.5) ">
<use xlink:href="#Layer0_0_MEMBER_0_MEMBER_4_FILL"/>
</g>

<g transform="matrix( 10, 0, 0, 10, -1177.45,-1013.5) ">
<use xlink:href="#Layer0_0_MEMBER_0_MEMBER_5_FILL"/>
</g>

<g transform="matrix( 10, 0, 0, 10, -1177.45,-1013.5) ">
<use xlink:href="#Layer0_0_MEMBER_0_MEMBER_6_FILL"/>
</g>

<g transform="matrix( 10, 0, 0, 10, -1177.45,-1013.5) ">
<use xlink:href="#Layer0_0_MEMBER_0_MEMBER_7_FILL"/>
</g>

<g transform="matrix( 10, 0, 0, 10, -1177.45,-1013.5) ">
<use xlink:href="#Layer0_0_MEMBER_0_MEMBER_8_FILL"/>
</g>

<g transform="matrix( 10, 0, 0, 10, -1177.45,-1013.5) ">
<use xlink:href="#Layer0_0_MEMBER_0_MEMBER_9_FILL"/>
</g>

<g transform="matrix( 10, 0, 0, 10, -1177.45,-1013.5) ">
<use xlink:href="#Layer0_0_MEMBER_0_MEMBER_10_FILL"/>
</g>

<g transform="matrix( 10, 0, 0, 10, -1177.45,-1013.5) ">
<use xlink:href="#Layer0_0_MEMBER_0_MEMBER_11_FILL"/>
</g>

<g transform="matrix( 10, 0, 0, 10, -1177.45,-1013.5) ">
<use xlink:href="#Layer0_0_MEMBER_0_MEMBER_12_FILL"/>
</g>

<g transform="matrix( 10, 0, 0, 10, -1177.45,-1013.5) ">
<use xlink:href="#Layer0_0_MEMBER_0_MEMBER_13_FILL"/>
</g>

<g transform="matrix( 10, 0, 0, 10, -1177.45,-1013.5) ">
<use xlink:href="#Layer0_0_MEMBER_0_MEMBER_14_FILL"/>
</g>

<g transform="matrix( 10, 0, 0, 10, -1177.45,-1013.5) ">
<use xlink:href="#Layer0_0_MEMBER_0_MEMBER_15_FILL"/>
</g>

<g transform="matrix( 10, 0, 0, 10, -1177.45,-1013.5) ">
<use xlink:href="#Layer0_0_MEMBER_0_MEMBER_16_FILL"/>
</g>

<g transform="matrix( 10, 0, 0, 10, -1177.45,-1013.5) ">
<use xlink:href="#Layer0_0_MEMBER_0_MEMBER_17_FILL"/>
</g>

<g transform="matrix( 10, 0, 0, 10, -1177.45,-1013.5) ">
<use xlink:href="#Layer0_0_MEMBER_0_MEMBER_18_FILL"/>
</g>

<g transform="matrix( 10, 0, 0, 10, -1177.45,-1013.5) ">
<use xlink:href="#Layer0_0_MEMBER_0_MEMBER_19_FILL"/>
</g>

<g transform="matrix( 10, 0, 0, 10, -1177.45,-1013.5) ">
<use xlink:href="#Layer0_0_MEMBER_0_MEMBER_20_FILL"/>
</g>

<g transform="matrix( 10, 0, 0, 10, 344.05,431) ">
<use xlink:href="#Layer0_0_MEMBER_1_FILL"/>
</g>

<g transform="matrix( 10, 0, 0, 10, -1177.45,-1013.5) ">
<use xlink:href="#Layer0_0_MEMBER_2_FILL"/>
</g>

<g transform="matrix( 10, 0, 0, 10, -1177.45,-1013.5) ">
<use xlink:href="#Layer0_0_MEMBER_3_FILL"/>
</g>

<g transform="matrix( 10, 0, 0, 10, 833.05,565.5) ">
<use xlink:href="#Layer0_0_MEMBER_4_FILL"/>
</g>

<g transform="matrix( 10, 0, 0, 10, -1177.45,-1013.5) ">
<use xlink:href="#Layer0_0_MEMBER_5_FILL"/>
</g>

<g transform="matrix( 10, 0, 0, 10, 860.55,564.5) ">
<use xlink:href="#Layer0_0_MEMBER_6_FILL"/>
</g>

<g transform="matrix( 10, 0, 0, 10, -1177.45,-1013.5) ">
<use xlink:href="#Layer0_0_MEMBER_7_FILL"/>
</g>

<g transform="matrix( 10, 0, 0, 10, 888.05,567) ">
<use xlink:href="#Layer0_0_MEMBER_8_FILL"/>
</g>

<g transform="matrix( 10, 0, 0, 10, -1177.45,-1013.5) ">
<use xlink:href="#Layer0_0_MEMBER_9_FILL"/>
</g>

<g transform="matrix( 10, 0, 0, 10, 838.55,586.5) ">
<use xlink:href="#Layer0_0_MEMBER_10_FILL"/>
</g>

<g transform="matrix( 10, 0, 0, 10, -1177.45,-1013.5) ">
<use xlink:href="#Layer0_0_MEMBER_11_FILL"/>
</g>

<g transform="matrix( 10, 0, 0, 10, 897.55,612) ">
<use xlink:href="#Layer0_0_MEMBER_12_FILL"/>
</g>

<g transform="matrix( 10, 0, 0, 10, -1177.45,-1013.5) ">
<use xlink:href="#Layer0_0_MEMBER_13_FILL"/>
</g>

<g transform="matrix( 10, 0, 0, 10, -1177.45,-1013.5) ">
<use xlink:href="#Layer0_0_MEMBER_14_FILL"/>
</g>

<g transform="matrix( 10, 0, 0, 10, 819.55,589) ">
<use xlink:href="#Layer0_0_MEMBER_15_FILL"/>
</g>

<g transform="matrix( 10, 0, 0, 10, -1177.45,-1013.5) ">
<use xlink:href="#Layer0_0_MEMBER_16_FILL"/>
</g>

<g transform="matrix( 10, 0, 0, 10, 822.55,645) ">
<use xlink:href="#Layer0_0_MEMBER_17_FILL"/>
</g>

<g transform="matrix( 10, 0, 0, 10, 883.05,616.5) ">
<use xlink:href="#Layer0_0_MEMBER_18_FILL"/>
</g>

<g transform="matrix( 10, 0, 0, 10, 833.05,630) ">
<use xlink:href="#Layer0_0_MEMBER_19_FILL"/>
</g>

<g transform="matrix( 10, 0, 0, 10, 840.55,581.5) ">
<use xlink:href="#Layer0_0_MEMBER_20_FILL"/>
</g>

<g transform="matrix( 10, 0, 0, 10, 869.05,571.5) ">
<use xlink:href="#Layer0_0_MEMBER_21_FILL"/>
</g>

<g transform="matrix( 10, 0, 0, 10, 915.55,576.5) ">
<use xlink:href="#Layer0_0_MEMBER_22_FILL"/>
</g>

<g transform="matrix( 10, 0, 0, 10, 911.05,629.5) ">
<use xlink:href="#Layer0_0_MEMBER_23_FILL"/>
</g>

<g transform="matrix( 10, 0, 0, 10, 871.55,648) ">
<use xlink:href="#Layer0_0_MEMBER_24_FILL"/>
</g>

<g transform="matrix( 10, 0, 0, 10, 851.55,653) ">
<use xlink:href="#Layer0_0_MEMBER_25_FILL"/>
</g>

<g transform="matrix( 10, 0, 0, 10, -1177.45,-1013.5) ">
<use xlink:href="#Layer0_0_MEMBER_26_FILL"/>
</g>

<g transform="matrix( 10, 0, 0, 10, -1177.45,-1013.5) ">
<use xlink:href="#Layer0_0_MEMBER_27_FILL"/>
</g>

<g transform="matrix( 10, 0, 0, 10, 472.05,171.5) ">
<use xlink:href="#Layer0_0_MEMBER_28_FILL"/>
</g>

<g transform="matrix( 10, 0, 0, 10, -1177.45,-1013.5) ">
<use xlink:href="#Layer0_0_MEMBER_29_FILL"/>
</g>

<g transform="matrix( 10, 0, 0, 10, 502.05,176) ">
<use xlink:href="#Layer0_0_MEMBER_30_FILL"/>
</g>

<g transform="matrix( 10, 0, 0, 10, -1177.45,-1013.5) ">
<use xlink:href="#Layer0_0_MEMBER_31_FILL"/>
</g>

<g transform="matrix( 10, 0, 0, 10, 514.55,197) ">
<use xlink:href="#Layer0_0_MEMBER_32_FILL"/>
</g>

<g transform="matrix( 10, 0, 0, 10, -1177.45,-1013.5) ">
<use xlink:href="#Layer0_0_MEMBER_33_FILL"/>
</g>

<g transform="matrix( 10, 0, 0, 10, 466.55,194) ">
<use xlink:href="#Layer0_0_MEMBER_34_FILL"/>
</g>

<g transform="matrix( 10, 0, 0, 10, -1177.45,-1013.5) ">
<use xlink:href="#Layer0_0_MEMBER_35_FILL"/>
</g>

<g transform="matrix( 10, 0, 0, 10, 509.55,235.5) ">
<use xlink:href="#Layer0_0_MEMBER_36_FILL"/>
</g>

<g transform="matrix( 10, 0, 0, 10, -1177.45,-1013.5) ">
<use xlink:href="#Layer0_0_MEMBER_37_FILL"/>
</g>

<g transform="matrix( 10, 0, 0, 10, -1177.45,-1013.5) ">
<use xlink:href="#Layer0_0_MEMBER_38_FILL"/>
</g>

<g transform="matrix( 10, 0, 0, 10, 437.55,183) ">
<use xlink:href="#Layer0_0_MEMBER_39_FILL"/>
</g>

<g transform="matrix( 10, 0, 0, 10, -1177.45,-1013.5) ">
<use xlink:href="#Layer0_0_MEMBER_40_FILL"/>
</g>

<g transform="matrix( 10, 0, 0, 10, 436.05,231.5) ">
<use xlink:href="#Layer0_0_MEMBER_41_FILL"/>
</g>

<g transform="matrix( 10, 0, 0, 10, 500.55,233.5) ">
<use xlink:href="#Layer0_0_MEMBER_42_FILL"/>
</g>

<g transform="matrix( 10, 0, 0, 10, 450.55,224) ">
<use xlink:href="#Layer0_0_MEMBER_43_FILL"/>
</g>

<g transform="matrix( 10, 0, 0, 10, 478.55,182) ">
<use xlink:href="#Layer0_0_MEMBER_44_FILL"/>
</g>

<g transform="matrix( 10, 0, 0, 10, 509.05,185.5) ">
<use xlink:href="#Layer0_0_MEMBER_45_FILL"/>
</g>

<g transform="matrix( 10, 0, 0, 10, 549.05,208.5) ">
<use xlink:href="#Layer0_0_MEMBER_46_FILL"/>
</g>

<g transform="matrix( 10, 0, 0, 10, 521.05,256.5) ">
<use xlink:href="#Layer0_0_MEMBER_47_FILL"/>
</g>

<g transform="matrix( 10, 0, 0, 10, 478.55,255.5) ">
<use xlink:href="#Layer0_0_MEMBER_48_FILL"/>
</g>

<g transform="matrix( 10, 0, 0, 10, 458.55,251.5) ">
<use xlink:href="#Layer0_0_MEMBER_49_FILL"/>
</g>
</svg>
